<svg width="70" height="70" viewBox="0 0 100 100" fill="none" xmlns="http://www.w3.org/2000/svg">
                        <g opacity="0.7">
                            <g clip-path="url(#clip0_175_3558)">
                                <path d="M15.2223 27.2222H15.7778L15.8889 27.3333V28.7778L15.2223 30.1111L14.2223 31.7778L13.4445 32.4445L11.0001 33.5556L9.66672 34.2222L9.11117 35.3333L8.4445 37.5556L7.22228 38.4445L6.66672 38.5556L5.77783 37.1111L5.88894 36.4445L6.88894 33.5556L7.4445 32.6667L11.6667 30.7778L12.3334 29.7778L13.2223 28.2222L13.6667 27.6667L15.2223 27.2222Z" fill="#BA8B4E" />
                                <path d="M12.1111 33.4445H12.3333L12.5555 34.4445V35.4445L11.8888 37.4445L11.3333 38.6667L10.3333 39.5556L7.77772 41.2222L7.44439 41.7778L7.11106 43.4445L6.99995 44.7778L6.22217 45.6667L5.5555 46.2222L4.99995 46L4.33328 45.2222L4.22217 44.3333L4.66661 41.6667L4.99995 40.5556L5.77772 39.8889L7.44439 38.7778L8.99995 37.6667L9.33328 37.1111L10.2222 34.4445L10.3333 34.2222L11.6666 33.6667L12.1111 33.4445Z" fill="#B98B4D" />
                                <path d="M93.2223 39.5555L93.7778 39.7778L94.6667 40.4444L95 41.4444L95.4445 43.8889V45L94.3334 46.4444L92.8889 48.3333L92.4445 49.1111L92.3334 50L92.1112 53.5555L91.7778 56.4444L91 60.3333L90 63.6667L88.7778 66.7778L87.2223 70L86.3334 71.5555L85 73.6667L83.4445 75.7778L82.2223 77.2222L81.3334 78.3333L80.4445 79.2222L79.7778 80L78.8889 80.7778L78.1112 81.5555L76.8889 82.5555L75.1112 84L71.7778 86.2222L69.4445 87.5555L67 88.7778L64.2223 89.8889L61.2223 90.8889L57.8889 91.6667L55.2223 92.1111L51.8889 92.4444H47.5556L44.4445 92.1111L41.2223 91.5555L38.5556 90.8889L36 90.1111L33.2223 89L30.4445 87.6667L27.8889 86.2222L26.3334 85.2222L25.1112 84.3333L23.2223 82.8889L21.6667 81.5555L19.8889 79.8889L19 79L18.2223 78.1111L17 76.7778L16 75.4444L14.7778 73.7778L13.4445 71.6667L12.4445 70L11.5556 68.2222L10.2223 65.1111L8.88893 61.1111L8.22226 58.3333L7.66671 55L7.44449 52.6667L7.33337 48.8889L8.44449 47.7778L8.5556 47.5555L9.11115 47.6667L9.5556 48.3333L9.88893 48.8889V51.2222L10.1112 54.1111L10.5556 57.1111L11.1112 59.6667L11.8889 62.3333L12.8889 65.1111L13.8889 67.3333L15 69.4444L16.2223 71.4444L17.1112 72.7778L18.8889 75.1111L20.2223 76.6667L21.4445 78L22.3334 78.8889L23.2223 79.6667L24.3334 80.6667L26.2223 82.1111L27.8889 83.3333L30 84.6667L32.8889 86.2222L36 87.5555L39 88.5555L41.8889 89.2222L44.5556 89.6667L47.6667 90H52.2223L55.4445 89.6667L58.8889 89L61.3334 88.3333L63.5556 87.5555L65.7778 86.6667L68.1112 85.5555L70.7778 84L72.5556 82.7778L74.3334 81.4444L75.5556 80.4444L77.1112 79.1111L79.6667 76.5555L79.7778 76.3333H80L80.2223 75.8889L81.7778 74L83 72.2222L84.3334 70.1111L85.2223 68.5555L86.4445 66L87.5556 63.2222L88.3334 60.7778L89 58.1111L89.5556 54.7778L89.7778 52L89.8889 49.4444L90.2223 48.3333L91.3334 46.7778L92.4445 45.4444L92.7778 44.6667L92.6667 43.2222L92.4445 42V40.8889L93.1112 39.6667L93.2223 39.5555Z" fill="#B98B4D" />
                                <path d="M48 1H50.4444L55 1.22222L57.6666 1.55556L61.6666 2.33333L64.4444 3.11111L66.6666 3.88889L69 4.77778L71.6666 6L74 7.22222L76.3333 8.66667L77.6666 9.55556L79.5555 10.8889L81.3333 12.3333L82.8889 13.6667L83.6666 14.4444L84.5555 15.2222L85 15.7778L86.5555 17.3333L87.3333 18.2222L88.8889 20.1111L90.1111 21.7778L91.2222 23.4444L93.2222 26.7778L94.4444 29.3333L95.7778 32.4444L96.5555 34.6667L97.2222 36.7778L98.1111 40.5556L98.5555 43.1111L99 48.4444V51.4444L98.6666 55.7778L98.2222 58.6667L97.5555 61.7778L96.7778 64.6667L95.6666 67.7778L94.7778 70L93.8889 71.7778L92.5555 74.3333L90.8889 77L89.3333 79.2222L88 80.8889L87 82.1111L85.2222 84L83.6666 85.5555L82.7778 86.3333L81.4444 87.5555L79.8889 88.7778L77.7778 90.3333L75.8889 91.5555L73.6666 92.8889L71.3333 94.1111L69.1111 95.1111L65.8889 96.3333L63 97.2222L59.6666 98L56.4444 98.5555L51.4444 98.8889H48.4444L44.8889 98.6667L41.5555 98.2222L38.2222 97.5555L34.7778 96.5555L31.4444 95.3333L27.7778 93.6667L25.1111 92.2222L23.5555 91.2222L21.5555 89.8889L19.6666 88.4444L18.4444 87.4444L17.3333 86.4444L15.8889 85.1111L14.3333 83.5555V83.3333H14.1111L13.3333 82.4444L12.1111 81L10.8889 79.4444L9.44442 77.4444L8.2222 75.5555L6.88886 73.2222L5.2222 69.8889L3.99997 66.7778L2.99997 63.7778L2.2222 60.8889L1.66664 58L1.2222 54.3333L1.11108 52.4444V47.4444L1.33331 44.4444L1.88886 40.7778L2.55553 37.6667L3.55553 34.3333L4.66664 31.3333L5.88886 28.5556L7.2222 26.1111L8.11108 24.5556L10.3333 21.2222L11.7778 19.3333L13 17.8889L14 16.7778L15.5555 15.1111L16.1111 14.5556H16.3333V14.3333L17.2222 13.5556L18.3333 12.5556L19.8889 11.3333L21.3333 10.2222L23.1111 9L24.8889 7.88889L27.2222 6.55556L30.2222 5.11111L33.2222 3.88889L36.3333 2.88889L39.4444 2.11111L43 1.44444L46.4444 1.11111L48 1ZM47.5555 2.11111L44.7778 2.33333L41.4444 2.77778L37.8889 3.55556L34.8889 4.44444L32.4444 5.33333L30.1111 6.33333L27.5555 7.55556L24.8889 9.11111L23.3333 10.1111L21.3333 11.5556L19.8889 12.6667L18.3333 14L17.2222 15L16.7778 15.3333V15.5556L16.3333 15.7778L14.7778 17.4444L13.7778 18.5556L12.7778 19.7778L11.8889 20.8889L10.6666 22.5556L9.2222 24.7778L8.2222 26.4444L6.66664 29.4444L5.2222 32.7778L3.88886 36.7778L2.99997 40.5556L2.55553 43.1111L2.2222 46.2222L2.11108 48.4444V52.3333L2.44442 55.8889L2.99997 59.4444L3.77775 62.6667L4.55553 65.2222L5.66664 68.2222L7.11108 71.3333L8.44442 73.8889L10.1111 76.5555L11.5555 78.5555L12.7778 80.1111L14.2222 81.7778L15.7778 83.4444L17.6666 85.3333L18.5555 86.1111L20 87.3333L21.4444 88.4444L23.3333 89.7778L25.4444 91.1111L28.6666 92.8889L31.3333 94.1111L34.2222 95.2222L37.7778 96.3333L40.6666 97L44.3333 97.5555L46.8889 97.7778H53.2222L57.3333 97.3333L60.7778 96.6667L63.6666 95.8889L67.3333 94.6667L70.1111 93.4444L72.2222 92.4444L74.5555 91.1111L76.4444 89.8889L78.6666 88.3333L80.4444 86.8889L81.6666 85.8889L83.4444 84.2222L85.2222 82.4444L86 81.5555L87.2222 80.1111L88.3333 78.6667L89.4444 77.1111L90.5555 75.4444L92.1111 72.7778L93.7778 69.4444L95 66.4444L96 63.3333L96.6666 60.8889L97.3333 57.3333L97.6666 54.6667L97.7778 53.1111V46.5556L97.3333 42.5556L96.5555 38.6667L95.7778 35.7778L94.6666 32.6667L93.3333 29.5556L92 26.8889L90.6666 24.6667L89.1111 22.3333L87.5555 20.2222L86.1111 18.5556L85 17.3333L84.2222 16.4444L82.7778 15L81.5555 14L80.3333 12.8889L78.1111 11.2222L76.2222 9.88889L73.4444 8.22222L70.8889 6.88889L68.2222 5.66667L65.2222 4.55556L61.8889 3.55556L58.3333 2.77778L54.1111 2.22222L52.5555 2.11111H47.5555Z" fill="#BB8E53" />
                                <path d="M48.4444 12.1111H51.5556L54.5556 12.3333L58.5556 13L61.4444 13.7778L63.6667 14.5556L66 15.5556L68.4445 16.7778L71 18.3333L72.5556 19.4444L74.1111 20.6667L75.2222 21.6667L75.5556 21.8889V22.1111L76 22.3333L78.1111 24.4444L79.1111 25.6667L80.2222 27L81.5556 28.8889L82.7778 30.8889L83.8889 32.8889L84.7778 34.7778L85.8889 37.6667L86.8889 41.1111L87.5556 44.6667L87.8889 47.7778V52.3333L87.4445 56.2222L86.7778 59.3333L86 62L84.8889 65L83.4445 68L82.3333 69.8889L81.4445 71.2222L80.3333 72.7778L79.2222 74.2222L77.6667 75.8889L76.7778 76.8889H76.5556L76.3333 77.3333L75.4445 78.1111L74 79.4444L72.6667 80.4444L70.7778 81.7778L68.7778 83L66 84.4444L63 85.6667L60.2222 86.5556L57.3333 87.2222L54.4444 87.6667L52.1111 87.8889H47.5556L44.4444 87.5556L41.4444 87L38.5556 86.2222L36 85.3333L33.2222 84.1111L31.1111 83L28.4444 81.3333L27 80.2222L25.4444 79L23.7778 77.4444L21.7778 75.4444L21 74.5556L19.7778 73L18.6667 71.4444L17.4444 69.5556L16.4444 67.7778L15.5556 66.1111L14.3333 63.1111L13.5556 60.7778L12.8889 58.1111L12.3333 54.8889L12 50.8889V49.3333L12.2222 46L12.6667 43L13.4444 39.6667L14.5556 36.3333L15.8889 33.3333L17.1111 31L18.4444 28.8889L19.3333 27.6667L20.3333 26.3333L21.5556 24.8889L22.3333 24.1111L22.4444 23.8889H22.6667L22.8889 23.4444L24 22.3333L24.8889 21.5556L26 20.5556L27.4444 19.4444L30.1111 17.6667L32.6667 16.2222L35 15.1111L38 14L40.7778 13.2222L44 12.5556L46.6667 12.2222L48.4444 12.1111ZM47.7778 12.8889L43.7778 13.3333L41.1111 13.8889L38.4444 14.6667L36.3333 15.4444L34.1111 16.4444L32.3333 17.3333L30.2222 18.5556L28.1111 20L26.5556 21.2222L25 22.5556L22 25.5556L21 26.7778L20 28.1111L18.6667 30.1111L17.6667 31.7778L16.3333 34.3333L15.1111 37.3333L14.1111 40.3333L13.5556 42.8889L13.1111 45.7778L12.8889 48.4444V51.5556L13.2222 55.1111L13.7778 58.2222L14.5556 61.1111L15.2222 63L16.3333 65.6667L17.8889 68.6667L19.1111 70.5556L20.4444 72.4444L21.6667 73.8889L22.6667 75.1111L25 77.4444H25.2222V77.6667L26.4444 78.6667L28.1111 80L30.1111 81.3333L32 82.4444L34.3333 83.6667L37 84.7778L40 85.7778L42.7778 86.4444L45.7778 86.8889L48.6667 87.1111H51.8889L55.3333 86.7778L58.2222 86.2222L61.1111 85.4444L63.3333 84.6667L65.8889 83.5556L68.6667 82.1111L70.7778 80.7778L72.5556 79.4444L74.1111 78.2222L75.7778 76.6667L77.8889 74.5556L78.8889 73.3333L79.7778 72.2222L81.4445 69.7778L82.7778 67.4444L83.6667 65.6667L84.7778 63.1111L85.6667 60.4444L86.3333 57.6667L86.7778 55L87 53.2222L87.1111 51.6667V48.3333L86.7778 44.8889L86.3333 42.3333L85.5556 39.2222L84.4445 36.1111L83.4445 33.8889L82 31.1111L80.5556 28.8889L79 26.7778L77.8889 25.5556L77.7778 25.3333H77.5556L77.3333 24.8889L74.6667 22.2222L73.4445 21.2222L71.8889 20L69.7778 18.5556L67.8889 17.4444L65.7778 16.4444L64.4444 15.7778L61.4444 14.6667L58.6667 13.8889L55.8889 13.3333L53.3333 13L51.7778 12.8889H47.7778Z" fill="#BB8D51" />
                                <path d="M46 0H53.8889L56.1111 0.333333L60.1111 1L64.1111 2L67.7778 3.22222L70.2222 4.22222L71.8889 5L73.6667 5.88889L75.6667 7L76.8889 7.77778L78.2222 8.66667L79.8889 9.88889L81.7778 11.3333L83.1111 12.5556L84 13.3333L85.6667 14.8889L87.4444 16.7778L88.4444 18L89.5556 19.3333L91.1111 21.4444L92.3333 23.3333L93.7778 25.7778L95 28.1111L96.4444 31.4444L97.7778 35.2222L98.5556 38.1111L99.3333 41.7778L99.7778 44.6667L100 46.4444V53.4444L99.4444 57.4444L98.6667 61.4444L97.7778 64.7778L96.6667 68L95.2222 71.3333L94 73.7778L92.5556 76.2222L91 78.5556L89.8889 80.1111L88.6667 81.6667L87.4444 83L86.4444 84.2222L84 86.6667L82.7778 87.6667L81.4444 88.8889L79.6667 90.2222L78.1111 91.3333L76.2222 92.5556L73.8889 93.8889L71.3333 95.2222L68.2222 96.5556L65.1111 97.6667L61.8889 98.5556L58.7778 99.2222L55.1111 99.7778L53.2222 100H46.8889L41.8889 99.3333L38.4444 98.6667L34.5556 97.5556L32.3333 96.7778L29.5556 95.6667L26.5556 94.2222L23.8889 92.6667L22.1111 91.5556L20.2222 90.2222L18.7778 89.1111L15.6667 86.4444L13.1111 83.8889L12.1111 82.6667L11.1111 81.5556L10 80.1111L8.66667 78.2222L7.44444 76.3333L6.11111 74L4.77778 71.4444L3.44444 68.3333L2.11111 64.5556L1.33333 61.6667L0.777778 59L0.333333 56.2222L0 53.8889V46.1111L0.333333 43.8889L0.888889 40.3333L1.77778 36.5556L3.11111 32.5556L4.11111 30L4.88889 28.3333L6.33333 25.5556L7.66667 23.3333L8.55556 22L9.88889 20.1111L11.1111 18.5556L12.4444 17L13.6667 15.6667L14.4444 14.7778L15.3333 14L16.3333 13L17.2222 12.2222L19.1111 10.6667L21.2222 9.11111L22.5556 8.22222L24.3333 7.11111L26.5556 5.77778L29.1111 4.55556L31.8889 3.33333L35.8889 2L39.8889 1L42.8889 0.444444L46 0ZM47.7778 0.555556L43.5556 1L40 1.55556L36.7778 2.33333L32.7778 3.66667L31 4.33333L28.1111 5.66667L25.3333 7.11111L22.6667 8.77778L20.5556 10.2222L19.3333 11.2222L18.2222 12.1111L16.8889 13.3333L15.7778 14.3333L15 15L14.2222 15.8889L13.4444 16.6667L12.6667 17.5556L11.6667 18.6667L10.7778 19.8889L9.77778 21.2222L8.77778 22.6667L7.44444 24.7778L6.11111 27.1111L5.22222 29L4.44444 30.6667L3.55556 32.8889L2.66667 35.5556L1.88889 38.4444L1.22222 42L0.888889 44.2222L0.555556 48.3333V52.2222L1 56.5556L1.55556 59.8889L2.33333 63.2222L3.22222 66.1111L4.11111 68.4444L5.11111 70.7778L6.66667 73.8889L7.77778 75.7778L9 77.6667L10.7778 80.1111L12.2222 81.8889L13.4444 83.2222L14.2222 84.1111L16.4444 86.3333L17.6667 87.3333L18.7778 88.3333L20.6667 89.7778L22.8889 91.3333L25.2222 92.7778L28.1111 94.3333L31.1111 95.6667L34.7778 97L37.8889 97.8889L41.1111 98.5556L44.7778 99.1111L48.3333 99.4444H51.5556L55.7778 99.1111L59.7778 98.4444L62.2222 97.8889L65.2222 97L67.7778 96.1111L70.4444 95L72.2222 94.1111L74.7778 92.7778L76.7778 91.5556L78.8889 90.1111L80.7778 88.6667L82.2222 87.4444L83.3333 86.4444L84.2222 85.6667L86.2222 83.6667L87 82.7778L88.1111 81.5556L89.5556 79.6667L90.6667 78.1111L91.7778 76.4444L92.7778 74.7778L94.1111 72.3333L95.2222 70L96.3333 67.2222L97.5556 63.5556L98.3333 60.2222L99 56.4444L99.4444 51.3333V48.3333L99 43.4444L98.4444 40.2222L97.8889 37.7778L97.4444 36.1111L96.1111 32.1111L94.8889 29.2222L93.8889 27.1111L92.4444 24.5556L90.6667 21.8889L89.2222 19.8889L87.7778 18.1111L86.3333 16.5556L85.5556 15.6667L83.7778 13.8889L82.8889 13.1111L81.6667 12L79.7778 10.5556L78.1111 9.33333L76.2222 8.11111L73.5556 6.55556L71.8889 5.66667L68.6667 4.22222L65.6667 3.11111L62.3333 2.11111L59.3333 1.44444L56.6667 1L51.7778 0.555556H47.7778Z" fill="#C6A06F" />
                                <path d="M46.4445 36L48.4445 36.1111L50.6667 36.5556L52.4445 37.2222L54.1112 38.1111L56.0001 39.4444L57.4445 40.7778L58.1112 41.6667V41.8889L57.6667 41.6667L56.1112 40.3333L54.5556 39.4444L53.2223 38.8889L51.5556 38.4444L50.7778 38.3333H48.1112L46.4445 38.6667L44.8889 39.2222L43.3334 40L42.0001 41L40.8889 42L39.8889 43.3333L38.8889 45.1111L38.3334 46.5556L37.8889 48.6667V51.3333L38.2223 53L38.7778 54.6667L39.6667 56.3333L40.6667 57.6667L41.3334 58.4444L42.7778 59.5556L44.4445 60.5556L46.2223 61.2222L47.6667 61.5556L48.7778 61.6667H50.3334L52.4445 61.3333L54.4445 60.6667L55.6667 60L57.1112 58.8889L58.0001 58.1111L58.2223 58.2222L57.4445 59.2222L56.6667 60L55.4445 61L53.7778 62.1111L52.0001 63L50.2223 63.5556L48.5556 63.8889L47.3334 64H46.1112L43.6667 63.6667L41.8889 63.1111L40.5556 62.5556L39.3334 61.8889L38.1112 61L37.0001 60L36.1112 59.1111L35.0001 57.5556L34.1112 56L33.3334 54L32.8889 52L32.7778 49.7778L32.8889 48.1111L33.4445 45.7778L34.1112 44.1111L34.8889 42.6667L35.8889 41.2222L37.1112 39.8889L38.0001 39.1111L39.5556 38L42.1112 36.7778L43.7778 36.3333L45.1112 36.1111L46.4445 36Z" fill="#B98B4E" />
                                <path d="M48.3334 24.3333H51.4445L54.5556 24.6666L57.3334 25.3333L59.5556 26.1111L61.5556 27L63.5556 28.1111L65.4445 29.4444L66.6667 30.4444L68 31.6666L69.3334 33L70.5556 34.5555L71.6667 36.1111L72.7778 38.1111L73.7778 40.2222L74.7778 43.2222L75.4445 46.4444L75.5556 47.4444L75.6667 50.4444L75.4445 53.4444L74.8889 56.3333L74 59.2222L73 61.4444L71.7778 63.6666L70.4445 65.5555L69.2223 67L66.8889 69.3333L65.6667 70.3333L63.7778 71.6666L61.4445 73L58.8889 74.1111L56.6667 74.7778L54.2223 75.3333L52.3334 75.5555H47.4445L45.1112 75.2222L42.7778 74.6666L40.4445 73.8889L37.2223 72.3333L35.1112 71L33.5556 69.7778L32.1112 68.4444L30.8889 67.2222L29.8889 66L28.7778 64.5555L27.4445 62.3333L26.2223 59.7778L25.4445 57.6666L24.7778 55L24.4445 52.7778L24.3334 51.3333V48.6666L24.5556 46.2222L25.1112 43.4444L26.1112 40.4444L26.8889 38.6666L28.2223 36.3333L29.4445 34.5555L30.4445 33.3333L31.7778 31.8889L33.1112 30.5555L34.6667 29.3333L36.1112 28.3333L38.4445 27L40.6667 26L43.4445 25.1111L46 24.5555L48.3334 24.3333ZM48.8889 25.2222L46.5556 25.4444L44.2223 25.8889L42 26.5555L40.2223 27.2222L38.4445 28.1111L36.4445 29.2222L34.6667 30.5555L33.4445 31.5555L31.3334 33.6666L30.2223 35.1111L29.4445 36.2222L28.5556 37.6666L27.3334 40L26.3334 42.6666L25.6667 45.2222L25.3334 47.7778V52.1111L25.7778 55.1111L26.4445 57.4444L27.2223 59.5555L28.3334 61.8889L29.4445 63.6666L30.4445 65L31.4445 66.2222L33 67.8889L34.5556 69.2222L36.2223 70.4444L37.8889 71.4444L40 72.5555L42.3334 73.4444L44.7778 74.1111L47.8889 74.5555H52.1112L55.1112 74.1111L57.5556 73.4444L59.8889 72.5555L61.6667 71.6666L63.5556 70.5555L65.3334 69.2222L66.5556 68.1111L67.4445 67.3333L68.4445 66.3333L69.4445 65.1111L70.6667 63.4444L71.8889 61.3333L72.8889 59.2222L73.7778 56.5555L74.2223 54.6666L74.6667 51.2222V48.7778L74.3334 45.8889L73.7778 43.3333L72.7778 40.4444L71.5556 37.8889L70.1112 35.6666L69 34.2222L67.6667 32.6666L66.2223 31.3333L64.6667 30.1111L63.5556 29.3333L61.8889 28.3333L60.2223 27.4444L57.6667 26.4444L55.1112 25.7778L52.3334 25.3333L50.5556 25.2222H48.8889Z" fill="#BA8C50" />
                                <path d="M9.66663 40.4445L10.2222 40.5556L10.6666 41.7778L10.5555 43L10.2222 45.1111L9.88885 45.7778L8.88885 46.8889L7.77774 48L6.88885 48.7778L6.11107 49.6667L5.99996 50V52.6667L6.33329 56.1111L6.88885 59.2222L7.55551 61.8889L8.55551 64.8889L9.99996 68.2222L11.5555 71.2222L13.2222 74L14.4444 75.7778L15.7777 77.5556L16.7777 78.7778L18.2222 80.4445L18.7777 81.1111L20.4444 82.7778L21.3333 83.5556L22.5555 84.6667L24.1111 85.8889L26 87.3333L28.1111 88.7778L28.5555 89.1111L29 89.2222L29.1111 88.6667L29.4444 88.1111L31.4444 89L31.5555 89.3333L30.5555 91.5556L30.3333 92L29.7777 91.8889L27.3333 90.5556L25.5555 89.4445L23.7777 88.2222L21.7777 86.6667L20.2222 85.3333L18.7777 84L16 81.2222L15.2222 80.3333L14 78.8889L12.5555 77L11.4444 75.4445L10.2222 73.5556L8.66663 70.7778L7.11107 67.5556L5.99996 64.6667L5.11107 61.7778L4.4444 59L3.99996 56.4445L3.66663 52.6667V49.4445L3.99996 48.6667L4.88885 47.6667L5.77774 46.8889L7.4444 45.2222L7.66663 44.6667L7.99996 42L8.33329 41.4445L9.4444 40.6667H9.66663V40.4445Z" fill="#B98B4E" />
                                <path d="M94.5555 47.2222L95.1111 47.4445L95.8888 48.3333L96.3333 48.8889L96.4444 49.2222V53.5556L96.1111 56.7778L95.5555 59.8889L94.7777 62.8889L93.8888 65.5556L92.6666 68.4445L91.3333 71.2222L89.7777 73.8889L88.4444 75.8889L87.2222 77.5556L85.7777 79.3333L84.7777 80.5556L83.4444 82L80.6666 84.7778L79.4444 85.7778L77.8888 87.1111L76.1111 88.4445L74.6666 89.4445L73.2222 90.3333L70.2222 92L69.7777 91.8889L68.8888 90L68.6666 89.4445V89.1111L70.3333 88.2222L70.7777 88.3333L71.1111 89.1111L71.6666 88.8889L73.7777 87.4445L75.8888 85.8889L77.1111 84.8889L78.6666 83.5556L79.5555 82.7778L80.8888 81.5556L81.7777 80.6667L82.5555 79.7778L84 78.1111L85.4444 76.2222L86.8888 74.2222L88.1111 72.2222L89.2222 70.2222L90.5555 67.5556L91.4444 65.3333L92.6666 61.6667L93.4444 58.2222L93.8888 55.2222L94.1111 52.7778V50.3333L93.4444 48.6667L94.3333 47.4445L94.5555 47.2222Z" fill="#B98B4E" />
                                <path d="M21 33L21.8889 33.1111L23.7778 33.8889L24 34L23.8889 34.5556L22.6667 37.4444L21.5556 40.4444L20.7778 43.1111L20.2223 45.7778L20 47.8889V50.8889L20.2223 53.2222L20.6667 55.6667L21.3334 58.2222L22.3334 61.2222L22.6667 62V62.5556L20.6667 63.3333H19.5556L18.7778 62.6667L18 60.6667V60.3333L19.6667 59.6667L20.3334 59.5556L19.8889 58L19.3334 55.4444L18.8889 52.2222L18.6667 49.5556V47.4444L18.7778 47.1111L16.4445 46.8889L16.3334 46.7778V45.7778L16.6667 45.6667L18.7778 45.7778L19.2223 44L19.5556 42.3333L18.5556 42.2222L17.1112 41.8889L17.2223 41L17.3334 40.7778L18.6667 41L19.8889 41.3333L20 40.5556L20.7778 38.2222L18 37L16.8889 36.4444L17 35.8889L17.2223 35.5556L17.8889 35.6667L19 36.1111L20.2223 33.4444L20.6667 33.1111L21 33ZM21.1112 34.1111L20.4445 35.4444L20.3334 36.1111L20.8889 36.6667L21.2223 36.8889H21.6667L22.4445 35.1111L22.5556 34.5556L21.6667 34.1111H21.1112ZM20.5556 60.4444L19.4445 61L19.5556 61.7778L19.8889 62.2222H20.5556L21.2223 61.7778L21.1112 61.2222L20.7778 60.5556L20.5556 60.4444Z" fill="#BA8B4E" />
                                <path d="M59.6667 43.8889L60.1112 44.1111L62.2223 47.3333V47.5556L63 47.4444L66.5556 46.2222H67L66.7778 46.6667L65.6667 48L64.7778 49.2222L64.3334 49.7778L64.4445 50.2222L65.8889 52.2222L66.8889 53.5556V53.7778L66.2223 53.6667L63.4445 52.6667L62.4445 52.4444L61 54.5556L59.8889 56.1111H59.6667V54.5556L59.7778 52L59.8889 51.4444L58.8889 51.2222L55.4445 50.1111L55.3334 49.8889L57.8889 49.1111L59.5556 48.6667L59.6667 47V43.8889Z" fill="#BA8C4F" />
                                <path d="M80.2223 46.4444H82.1112L82.7778 46.7778L83.2223 47.6666V49L82.8889 49.6666L82.2223 50.1111L80.5556 50.3333V51.5555L80.2223 54.3333L80.0001 55.8889L80.8889 56.1111L81.2223 55.1111L81.6667 52.6666L82.0001 52.5555L83.6667 52.8889L84.3334 53.3333L84.6667 53.7778V54.8889L83.8889 58.5555L83.5556 58.7778L82.7778 58.5555L82.6667 58.3333L83.2223 56L83.4445 54.7778V54L82.8889 53.7778H82.6667L82.5556 54.8889L82.1112 56.5555L81.6667 57L81.2223 57.2222L79.8889 57.1111L79.6667 57L79.4445 58.1111L78.5556 60.6666L78.2223 61.6666L78.8889 62.1111L79.5556 62.2222L79.8889 61.2222L80.3334 60L80.7778 59.8889L81.3334 60.4444L81.2223 61.4444L80.4445 63L79.8889 63.4444H79.0001L76.8889 62.6667L76.7778 62.2222L77.8889 59.3333L78.7778 56.5555L79.3334 53.7778L79.4445 52.8889V50.3333L78.5556 50.1111L77.8889 49.3333L77.7778 49V48.2222L77.8889 48H78.7778L79.0001 48.1111V48.8889L79.1112 49.1111L79.5556 49.2222L79.4445 48V46.5555L80.2223 46.4444ZM80.7778 47.5555L80.6667 47.6666V48.8889L81.0001 49.1111L82.1112 49L82.2223 48.8889V47.7778L82.0001 47.5555H80.7778Z" fill="#BA8C4F" />
                                <path d="M31.2223 70.7778L31.6667 71L32.0001 71.2222L31.8889 71.8889L31.1112 72.6667L30.1112 73.8889L29.4445 74.6667L29.6667 75.1111L31.4445 76.4444L32.7778 77.3333L33.5556 77.7778L34.3334 76.4444L34.6667 75.7778L35.0001 75.6667L35.7778 76.1111L35.0001 77.6667L34.6667 78.2222V78.4444L37.3334 79.7778L37.7778 79.8889L37.8889 79.1111L38.4445 77.6667L39.4445 77.7778L39.5556 78.2222L38.7778 80.1111V80.3333L41.4445 81.2222H42.0001L42.4445 79.1111L42.5556 78.8889L43.5556 79.1111L43.6667 79.4444L43.1112 81.6667L45.5556 82L48.2223 82.2222V79.5555L48.3334 78H49.3334L49.4445 78.1111L49.3334 83.4444H47.6667L44.6667 83.1111L41.7778 82.5555L39.1112 81.7778L37.3334 81.1111L34.5556 79.7778L32.6667 78.6667L31.3334 77.7778L29.5556 76.4444L28.3334 75.4444L27.7778 75L28.0001 74.5555L29.0001 73.4444L30.0001 72.2222L31.2223 70.7778Z" fill="#BA8C4F" />
                                <path d="M71.7778 24.7778L72.5556 24.8889L73.6667 25.8889L74.4445 26.6667V27L73.6667 27.6667L73 28.4444H72.7778L73.2223 29.2222L73.8889 30L75.2223 31.8889L76.3334 33.5555L77.6667 36.1111L78.7778 39L79.7778 42L80.5556 41.8889H81.6667L82.2223 42.2222L82.5556 42.6667L83 44.3333L83.1112 45.2222L81.6667 45.5555L80.2223 45.7778H79.3334L78.6667 42.6667L77.8889 39.8889L76.7778 37.1111L75.8889 35.3333L74.7778 33.3333L73.3334 31.3333L72.1112 29.8889L71.1112 28.7778L69.3334 27L69.5556 26.5555H69.7778L70 26.1111L71 25.1111L71.7778 24.7778ZM71.6667 25.8889L70.8889 26.6667L71 27.1111L71.6667 27.8889L72.1112 27.6667L72.8889 27L72.6667 26.5555L72.1112 26L71.6667 25.8889ZM81.1112 42.8889L80 43.1111L80.1112 44L80.4445 44.5555L81.5556 44.4444L81.7778 44.3333L81.6667 43.1111L81.1112 42.8889Z" fill="#BA8B4E" />
                                <path d="M90.7777 31.8889L91.7777 32.2222L92.4444 32.5556L92.8888 33.3333L93.7777 36L93.8888 36.5556V37.3333L92.5555 39.7778L91.8888 41.2222V42.2222L92.2222 44.8889L91.1111 46.4444L90.7777 46.5556L90.2222 46L89.7777 45.4444L89.3333 43.1111L89.2222 41.6667L89.6666 40.5556L90.7777 38.5556L91.1111 37.6667V36.6667L90.5555 34.7778L90.2222 33.7778L90.6666 32L90.7777 31.8889Z" fill="#B98B4D" />
                                <path d="M49.4444 3.88889H50.6667L52 4L52.8889 4.77777L53.4444 5.33333V5.55555L53.7778 5.66666L54.7778 6.88889L55.6667 7.66666L56.7778 7.88889L58.8889 8.33333L59.4444 8.77777L60.2222 10L60 10.4444L59.2222 10.7778H58.1111L55.1111 10.1111L54.1111 9.44444L53.3333 8.66666L52.3333 7.44444L51.5555 6.77777L50.5555 6.66666H48.2222L47.4444 6.22222L46.5555 5.55555L46.6667 5L47.6667 4L49.4444 3.88889Z" fill="#BA8B4E" />
                                <path d="M63.4444 6.11111L64.2222 6.22223L67.3333 7.33334L67.8889 7.66667L69.1111 10.5556L70 12.3333L71.1111 13L72.6666 13.8889L73.1111 14.5556L73.3333 15.3333V16.2222L73.2222 16.3333L72.1111 16.4444L71 15.8889L69.2222 14.7778L68.4444 14.2222L67.7778 13.1111L66.6666 10.4444L66.4444 10L65.3333 9.44445L64 9L63.2222 8.77778L62.5555 7.88889L62.1111 7.22223L62.2222 6.77778L63.4444 6.11111Z" fill="#B98B4E" />
                                <path d="M70.6667 9.22223H71.3333L73.4445 10.3333L74.6667 11.1111L75.2222 11.6667L75.8889 14.7778L76.2222 16.1111L77 17L78.5556 18.3333L78.8889 19L79 20.5556L78.7778 20.8889L77.6667 20.7778L76.4445 19.8889L75 18.6667L74.4445 18L74.1111 17L73.4445 14.1111L73.1111 13.3333L72 12.5556L70.4445 11.7778L70 11.2222L69.4445 10V9.66667L70.6667 9.22223Z" fill="#BA8B4E" />
                                <path d="M55.4444 4.44446H56.4444L58.9999 4.8889L60.1111 5.22224L60.7777 6.11112L61.9999 8.00001L62.8888 9.22224L64.4444 9.8889L65.8888 10.4445L66.4444 11L66.9999 12.2222L66.8888 12.7778L66.2222 12.8889H65.2222L62.4444 11.8889L61.7777 11.4445L60.9999 10.4445L59.7777 8.44446L59.2222 7.77779L58.2222 7.44446L56.8888 7.22224L55.6666 7.11112L54.2222 5.66668L54.4444 5.22224L55.4444 4.44446Z" fill="#BA8B4E" />
                                <path d="M56.4445 16.6667L57.2222 16.7778L58.8889 17.2222L59.4445 17.6667L59.5556 18V19.2222L59.1111 21L57.6667 20.7778L54 20.1111L51.1111 19.7778H47.7778L45 20.1111L42.4445 20.6667L39.6667 21.5555L37.8889 22.2222H37.4445L37.2222 21.6667L37.3333 21.2222L38.5556 20.6667L39.2222 20.3333L39 19.1111L38 19.3333L37.2222 19.6667L36.7778 19.5555L36.4445 19L36.5556 18.6667L38.1111 18.1111H39.2222L39.7778 18.5555L40.3333 19.7778V20L42.5556 19.3333L44.8889 18.8889L47 18.6667H50.7778L54.2222 19L57.5556 19.5555L58.2222 19.7778L58.4445 18.3333L56.1111 17.7778L55.8889 17.6667L56.1111 17.1111L56.4445 16.6667Z" fill="#B98B4D" />
                                <path d="M43.2223 4.44446L44.2223 4.55557L45.1112 5.22224L47.0001 6.55557L48.0001 7.22224L48.3334 7.33335H51.3334L51.8889 7.66668L52.7778 8.55557L53.0001 9.22224L52.0001 9.77779L51.4445 9.8889H48.0001L46.8889 9.33335L45.3334 8.11112L44.2223 7.33335L44.0001 7.22224H42.5556L40.6667 7.66668L39.8889 7.55557L38.7778 6.8889L38.8889 6.33335L39.5556 5.33335L41.0001 4.8889L43.2223 4.44446Z" fill="#BA8B4F" />
                                <path d="M23.5556 16.4444L25.1111 16.5555L25.7778 16.7778L25.6667 17.4444L25.1111 18.4444L24 19.4444L23.1111 20.2222L22.4445 20.6666L21.4445 20.8889L18.8889 21L17.6667 21.2222L16.5556 22.2222L15.6667 23.3333L15.4445 23.7778L14.3334 24.2222L13.2222 24.4444L12.8889 23.1111L13 22.5555L13.6667 21.6666L14.6667 20.4444L15.6667 19.3333L15.8889 19.1111L20 18.7778L21.2222 18.4444L22.5556 17.2222L23.5556 16.4444Z" fill="#BA8B4E" />
                                <path d="M35.6666 6.22223L36.4444 6.33334L39.9999 8.11112L40.5555 8.33334H41.3333L43.3333 7.8889H44.1111L45.6666 8.8889L45.5555 9.44445L44.6666 10.2222L42.6666 10.6667L41.1111 10.8889L40.1111 10.6667L37.8888 9.55556L36.8888 9.00001H35.7777L33.2222 10L31.9999 9.77778L31.3333 9.44445L31.2222 9.11112L31.6666 8.00001L32.1111 7.55556L34.9999 6.44445L35.6666 6.22223Z" fill="#BA8B4E" />
                                <path d="M20 21.3333L20.4445 21.5556L20.2222 22.8889L19.5556 24L17.5556 26L16.4445 26.4445L13 27.3333L12 28.8889L11.5556 29.8889L11.2222 30.4445L9.66669 31.2222L9.33336 31.1111L8.88892 30V29.2222L10 27.1111L10.7778 25.8889L11.3334 25.4445L14.7778 24.5556L15.8889 24.2222L17 23L17.8889 21.8889L18.3334 21.5556L20 21.3333Z" fill="#BA8B4E" />
                                <path d="M28.3333 9.33331L29.3333 9.44442L33.1111 10.5555L33.8888 10.4444L36.3333 9.55554L37.1111 9.66665L38.5555 10.4444L38.4444 11L37.9999 11.5555L37.2222 12L34.7777 12.8889L33.6666 13L29.7777 11.8889L29.1111 12L27.3333 12.8889L26.4444 13.4444L25.8888 13.5555L24.3333 13.3333L24.2222 13L24.5555 11.6666L25.3333 11L27.3333 9.88887L28.3333 9.33331Z" fill="#B98B4E" />
                                <path d="M87 25.2222H87.7777L88.7777 25.5556L89.5555 26.6667L90.8888 29.1111L91 29.6667L89.8888 33L89.5555 34.4445L90.5555 37.3333L90.4444 38L89.7777 39.3333L89.2222 39.4445L88.3333 38.5556L87.8888 37.6667L87.2222 35.2222V34.3333L87.8888 32.1111L88.3333 30.6667L88.2222 29.6667L87.2222 27.8889L86.7777 27.3333L86.6666 26.5556L86.8888 25.3333L87 25.2222Z" fill="#B98B4D" />
                                <path d="M29.6667 12.4444L30.6667 12.5555L31.8889 12.8889L32 13.3333L31.2222 14.4444L30.3333 15.1111L28.6667 16L27.6667 16.3333L26 16.2222L24.1111 16H23.2222L22.4445 16.4444L21.4445 17.3333H21.2222L21 17.7778L20.3333 18.2222L19.7778 18.3333H18.5556L18.4445 18.2222V16.8889L18.6667 16.3333L19.6667 15.3333L20.8889 14.3333L21.6667 13.6666H23L26.2222 14H27.1111L28.6667 13.1111L29.6667 12.4444Z" fill="#BA8B4E" />
                                <path d="M77.1112 13.6667H78.1112L79.0001 14.3333L80.2223 15.3333L81.3334 16.3333L81.4445 16.6667L81.5556 19.5555L81.7778 21.4444L82.2223 22.3333L83.6667 23.8889L83.889 24.5555L83.5556 26.2222L83.0001 26.3333L82.1112 26L81.1112 24.8889L80.0001 23.4444L79.5556 22.5555L79.4445 21.3333L79.3334 18.4444L79.0001 17.8889L77.889 16.7778L76.7778 15.8889L76.4445 15.2222L76.2223 13.8889L76.3334 13.7778L77.1112 13.6667Z" fill="#B98B4E" />
                                <path d="M82.3333 18.8889L83.7778 19L84.4444 19.5556L85.4444 20.7778L86.2222 21.6667L86.6666 22.4444V23.5556L86.2222 26.5556V27.3333L86.6666 28.4444L87.6666 30.2222V31L87.2222 32.2222L87 32.4444L86.4444 32.3333L85.6666 31.7778L84.7778 30.3333L83.8889 28.4444L84 26.6667L84.3333 24.6667V23.7778L83.6666 22.6667L82.2222 21.1111L82.1111 20.5556V19.1111L82.3333 18.8889Z" fill="#B98B4E" />
                                <path d="M34.7778 90.5555L35.7778 90.7778L36.8889 91.1111L37 91.2222L36.8889 92.6667L40.8889 93.6667L45.4445 94.4444H46.1111L46.2222 93.3333L46.3334 93.2222L48.4445 93.3333L48.5556 93.6667L48.4445 96.3333L48.3334 96.4444L46.5556 96.3333L42.8889 95.8889L39.4445 95.2222L36.4445 94.4444L34 93.6667L33.8889 93.3333L34.5556 91.3333L34.7778 90.5555Z" fill="#B98A4D" />
                                <path d="M65.4444 90.6667L65.8888 90.7778L66.7777 93.5555L65.6666 94L62.9999 94.7778L59.6666 95.5555L56.2222 96.1111L53.2222 96.4444H52.4444L52.3333 96.3333L52.2222 94.8889V93.3333H54.4444L54.5555 93.4444L54.6666 94.4444L56.7777 94.2222L60.8888 93.4444L63.6666 92.7778H63.9999L63.6666 91.3333L64.5555 91L65.4444 90.6667Z" fill="#B98A4C" />
                                <path d="M62 75L62.5556 75.1111L63.7778 77.7778L64.6667 79.4444L64.5556 79.8889L62.2222 81L59.1111 82.1111L56.3333 82.7778L54.5556 83.1111L51.8889 83.4444L51.5556 83.2222L51.4445 82.3333V80.3333L52.2222 79.6667L54.3333 79.3333L54.7778 79.4444L55 80.6667L55.1111 82L56.8889 81.5556L60.1111 80.5556L62.8889 79.4444H63.2222L62.3333 77.4444L61.3333 75.5556L61.4445 75.2222L62 75ZM53.4445 80.5556L52.4445 80.8889V82.1111L52.5556 82.2222H53.6667L54 82L53.8889 80.7778L53.4445 80.5556Z" fill="#BA8B4E" />
                                <path d="M26.1111 23L26.5555 23.1111L28.4444 25L29.2222 25.8889L30.1111 26.7778L30 27.2222L29.2222 28L28.3333 28.7778L27.3333 29.7778L26.8889 30.4444L27.4444 31.1111L27.5555 31.3333V32.1111L27 33.2222L26.2222 33.1111L25.8889 32.7778V32.4444L26.2222 32.1111L26.3333 31.5556L25.7778 31.8889L24.7778 33.3333H24.2222L23.6666 32.8889L22.6666 32.1111L22.1111 31.4444V30.5556L22.5555 29.6667L23.4444 28.8889L24.1111 28.7778L25.2222 29.2222L25.6666 29.5556L26 29.6667L26.2222 29.2222L27.2222 28.1111L28.3333 27L28.4444 26.6667H28.2222L27.4444 25.7778L26.8889 25.2222V25H26.6666L25.8889 24.1111L25.5555 23.8889L25.6666 23.4444L26.1111 23ZM23.7778 30L23.2222 30.6667L23.3333 31.2222L24.1111 31.8889L24.5555 31.7778L25.1111 31L25 30.5556L24.2222 30H23.7778Z" fill="#BA8B4E" />
                                <path d="M61.7778 18.3333L62.8889 18.5556L63.7778 19.1111L64.1112 19.4445L64.2223 19.7778V20.5556L63.7778 21.7778V22L64.4445 22.2222L65.4445 22.6667L66.3334 21.1111L67.4445 19.2222L68.0001 19.1111L68.4445 19.4445L68.3334 20.1111L66.7778 22.7778L66.1112 24L65.8889 24.3333L65.3334 24.2222L63.6667 23.2222L63.1112 23.1111L62.5556 23.6667L62.0001 24L61.1112 23.8889L60.4445 23.5556L60.3334 23.1111L60.6667 22.5556L61.5556 22.6667L61.8889 22.5556L62.0001 22.3333L61.3334 22.1111L59.8889 21.4445L59.7778 21.1111L60.5556 19.4445L61.0001 18.7778L61.4445 18.4445L61.7778 18.3333ZM61.7778 19.5556L61.3334 20.3333L61.4445 20.8889L62.2223 21.3333L62.6667 21.2222L63.1112 20.4445L63.0001 19.8889L62.3334 19.5556H61.7778Z" fill="#B98B4E" />
                                <path d="M65.7778 75L66.6667 75.1111L67.2222 75.4444L68 76.5556L68.7778 77.7778L68.8889 78.1111V79L68.1111 79.8889L67.5556 80L67 79.4444L67.6667 78.6667L67.8889 78.2222L67.1111 78.5556L65.8889 79.3333L65.4444 79.4444L64.7778 78.5556L64 77L64.1111 76.3333L64.5556 75.6667L65.4444 75.1111L65.7778 75ZM65.7778 76.1111L65.2222 76.4444V77.1111L65.6667 77.7778L66.1111 77.8889L66.8889 77.3333L67 77L66.3333 76.1111H65.7778Z" fill="#BA8D50" />
                                <path d="M34.6667 19.3333L35.1112 19.4444L36.5556 22L36.7778 22.2222L36.6667 22.7778L34.1112 24.2222L33.5556 24.3333L32.4445 22.4444L32.3334 22V21.2222L33.1112 20.3333L34.4445 19.5555L34.6667 19.3333ZM34.2223 21L33.4445 21.4444L33.3334 21.8889L33.8889 22.8889L34.4445 22.7778L35.1112 22.3333L35 21.5555L34.5556 21H34.2223Z" fill="#B98B4E" />
                                <path d="M68.7778 72.7778H69.7778L70.8889 73.7778L71.6666 74.7778L71.4444 75.2222L70.2222 76.2222L69.2222 77.1111L68.7778 76.8889L68.4444 76.3333L68.5555 76L69.4444 75.3333L70 74.8889L69.7778 74.4444L69.3333 73.8889L68.7778 74L67.8889 74.8889L67.4444 74.7778L67.1111 74.4444L67.2222 73.8889L68.1111 73.1111L68.7778 72.7778Z" fill="#BA8C4F" />
                                <path d="M28.1111 21.5555L28.6667 22.1111L29.8889 23.5555L31 25L31.5556 25.6667L31.4445 26.1111L31 26.5555L30.5556 26.4444L28.1111 23.3333L27.4445 22.4444L27.5556 22L28.1111 21.5555Z" fill="#BB8D51" />
                                <path d="M69.5556 20.3333L70.1112 20.5555L70.3334 20.7778L70.2223 21.3333L69.1112 22.8889L67.8889 24.6666L67.3334 25.3333L66.6667 25.1111L66.3334 24.6666L67.1112 23.6666L68.3334 21.8889L69.3334 20.5555L69.5556 20.3333Z" fill="#BA8C4F" />
                                <path d="M24.3333 66.5555L24.8888 66.8889L25.6666 68L25.5555 68.5555L24.1111 69.5555L23.6666 69.3333L22.6666 67.8889L22.7777 67.5555L23.7777 66.8889L24.3333 66.5555Z" fill="#B98B4E" />
                                <path d="M75 66.6667H75.5556L76.6667 67.4444L76.8889 67.5555V68.1111L75.7778 69.5555L75.2222 69.3333L74.1111 68.5555L73.8889 68.1111L74.6667 67.1111L75 66.6667Z" fill="#BA8B4E" />
                                <path d="M32.4444 89.5555L33.4444 89.7778L33.6667 90L33.5556 90.7778L33.2222 91.4444L32 90.8889L32.1111 90.1111L32.4444 89.5555Z" fill="#BB8E53" />
                                <path d="M68.2223 91.5555L68.7778 91.6667L69.1112 92.7778L68.3334 93.2222H67.7778L67.3334 92.3333V92L68.2223 91.5555Z" fill="#B98A4D" />
                                <path d="M31.5555 91.5555L32.3333 91.6667L32.8888 92L32.7777 92.5555L32.5555 93.2222L32.2222 93.3333L31.2222 92.7778V92.3333L31.5555 91.5555Z" fill="#BB8E53" />
                                <path d="M67.5555 89.5555L67.8889 89.6667L68.2222 90.3333V90.8889L67.5555 91.2222H67L66.5555 90.2222L66.7778 89.8889L67.5555 89.5555Z" fill="#BB8D51" />
                                <path d="M49.7777 93.3333H51L51.1111 94.1111V94.6666H49.6666V93.7778L49.7777 93.3333Z" fill="#B98A4C" />
                                <path d="M74.7777 24.5555L75.2222 24.7778L75.4444 25L75.3333 25.4444L74.9999 25.8889L74.5555 25.7778L74.2222 25.4444L74.4444 24.8889L74.7777 24.5555Z" fill="#C19963" />
                                <path d="M73.6666 23.6667L74.2222 23.7778L74.3333 24.1111L74.5555 24.2222L74.2222 24.3333L73.9999 24.7778L73.5555 24.8889L73.2222 24.4444L73.3333 23.8889L73.6666 23.6667Z" fill="#C19963" />
                                <path d="M32.2222 79.1111L32.7777 79.4444L32.8888 79.8889L32.4444 80.4444L31.7777 80.2222L31.6666 79.8889L32 79.2222L32.2222 79.1111Z" fill="#BE935A" />
                                <path d="M56.4445 39.8889L57.2223 40.5556L58 41.4444L58.1112 41.8889L57.6667 41.6667L56.3334 40.5556L56.4445 39.8889Z" fill="#B98B4E" />
                                <path d="M17.4445 62.3333L17.8889 62.4445L18.1111 62.7778L18 63.3333L17.2222 63.4445L17 63.3333L16.8889 62.7778L17.4445 62.3333Z" fill="#B98B4E" />
                                <path d="M33.4444 18L33.8889 18.2222L34.2222 18.8889L33.7778 19.2222L33.2222 19.1111L33 18.7778L33.1111 18.2222L33.4444 18Z" fill="#BC8F54" />
                                <path d="M17 61H17.3334L17.5556 61.5556V62L16.8889 62.2222L16.4445 62L16.3334 61.6667L16.8889 61.1111L17 61Z" fill="#BE945B" />
                                <path d="M32.2222 18.7778H32.6666L32.8888 19.4444L32.4444 20L32 19.8889L31.6666 19.3333V19.1111L32.2222 18.7778Z" fill="#BA8C50" />
                                <path d="M37 81.7778L37.5555 81.8889L37.6666 82V82.7778L37.4444 83L36.8888 82.8889L36.6666 82.7778L36.7777 82.1111L37 81.7778Z" fill="#B98B4E" />
                                <path d="M41.1111 83L41.7778 83.1111L41.8889 83.6667L41.7778 84.2222L40.8889 84V83.3333L41.1111 83Z" fill="#C0965E" />
                                <path d="M33.2223 79.7778L33.8889 80L33.7778 80.6667L33.5556 81L32.8889 80.7778L32.7778 80.3333L33.2223 79.7778Z" fill="#D2B58F" />
                                <path d="M52.2222 77.7778H52.7778L53 78.2222L52.8889 78.7778L52.1111 78.8889L52 78.7778V78.1111L52.2222 77.7778Z" fill="#BD9157" />
                                <path d="M53.7778 77.6667L54.2223 77.7778L54.4445 78.1111V78.5555L54.2223 78.6667H53.4445L53.3334 78.4444V77.7778L53.7778 77.6667Z" fill="#CCAA7D" />
                                <path d="M15.6667 40.4445L16.3333 40.5556L16.4445 40.7778V41.4445L16.3333 41.5556L15.5556 41.4445L15.4445 41.3333L15.5556 40.5556L15.6667 40.4445Z" fill="#BA8D50" />
                                <path d="M21 47L21.6666 47.1111L21.7777 47.2222V47.7778L21.2222 48L20.6666 47.7778L20.7777 47.1111L21 47Z" fill="#BE935A" />
                                <path d="M21.1111 45.5555L21.7778 45.7778V46.6667H20.8889V45.7778L21.1111 45.5555Z" fill="#BC9055" />
                                <path d="M42.2222 83.3333L43 83.4444V84.3333L42.8889 84.4444L42.1111 84.3333L42.2222 83.3333Z" fill="#C19963" />
                                <path d="M58 58.1111L58.2222 58.2222L57.4444 59.2222L57 59.5556V59L58 58.1111Z" fill="#B98B4E" />
                            </g>
                        </g>
                        <defs>
                            <clipPath id="clip0_175_3558">
                                <rect width="100" height="100" fill="white" />
                            </clipPath>
                        </defs>
                    </svg>
