<svg width="70" height="70" viewBox="0 0 100 100" fill="none" xmlns="http://www.w3.org/2000/svg">
                        <g clip-path="url(#clip0_175_3653)">
                            <path d="M46.1604 0.483093H53.0797L56.728 0.841715L60.2506 1.43942L64.2763 2.39574L64.528 2.51528L64.4021 3.47161L62.7667 8.49231L58.9925 19.8487L58.6151 21.0441L60.7538 21.5222L62.3893 22.0004H62.7667L63.7731 20.0877L66.1634 15.3061L68.1763 11.2417L69.0569 9.56818L69.686 9.44864L71.573 9.68772L72.5795 10.5245L73.3343 11.4808L73.2085 11.959L71.3214 14.9475L69.3085 18.0556L66.0376 23.0763L65.9118 23.4349L67.0441 23.7935L68.3021 24.3912H68.5537L69.686 22.9567L73.7117 17.936L75.2214 16.0234L77.7375 12.9153L80.002 10.0463L80.5052 10.1659L82.2665 11.4808L83.6503 12.6762L84.6568 13.513L87.1729 15.9038L88.0535 16.8602L89.4374 18.4142L91.1986 20.6854L92.5825 22.7176L93.7147 24.5107L93.2115 24.9889L89.8148 26.782L86.1664 28.6947L83.3987 30.1292L80.5052 31.6832L79.1214 32.4004L79.373 32.8786L80.7568 34.4326L82.0149 36.1062L82.5181 36.7039L83.6503 36.4648L91.3244 33.9545H92.0793L93.0857 35.1499L93.4631 35.8671V37.4211L93.2115 38.1384L92.3309 38.497L85.0342 40.051H84.531L85.9148 43.0395L86.2922 43.1591L95.2244 42.0832L98.2437 41.7246H99.2502L99.5018 44.1154L99.6276 48.6579L99.5018 51.8855L98.8728 56.4281L97.9921 60.1338L97.6147 61.2097L96.4825 60.9706L88.9342 58.8189L88.3051 58.6993L87.6761 62.2856L87.4245 63.481V64.1982L89.5632 65.1545L90.4438 65.7522V67.0672L90.0664 68.0235L89.4374 68.8603L88.3051 69.6971L87.0471 69.0994L85.9148 68.3821H85.6632L84.1536 71.2511L83.0213 73.0442V73.5224L83.6503 73.7615L85.0342 74.5982L87.1729 75.9132L88.0535 76.3913L88.6825 76.1523L89.9406 75.0764L90.4438 74.7178H90.8212L90.1922 77.9454L89.5632 81.0534V81.4121L91.0728 81.7707L96.2309 82.727L96.6083 82.8465V83.0856L95.2244 84.0419L93.2115 85.596L91.0728 87.15L89.3116 88.465L87.4245 89.8994L85.789 91.0948L84.0277 92.4098L82.0149 93.8443L81.5117 93.9638L80.8826 93.0075L79.8762 91.2144L78.4923 88.465L78.3665 88.3454H21.251L18.7349 93.127L18.2317 93.9638L17.6026 93.7247L16.4704 93.0075L14.8349 91.8121L11.3124 89.1822L9.04789 87.5086L5.52534 84.8787L3.38666 83.3247L3.00924 83.0856L3.13505 82.727L9.80272 81.5316L10.0543 81.4121L9.80272 79.6189L8.79628 74.7178L9.2995 74.8373L11.1866 76.3913L11.9414 76.2718L13.1995 75.435L15.9672 73.7615L16.5962 73.4028L16.4704 72.8051L15.0865 70.5339L13.9543 68.3821L13.3253 68.6212L11.564 69.6971L10.6834 69.2189L9.92852 68.6212L9.4253 67.904L9.17369 66.9476V65.7522L9.55111 65.3936L12.193 64.1982L12.3188 63.9591L11.6898 60.9706L11.4382 59.1775V58.5798L2.75763 61.0902L2.0028 61.2097L1.37377 59.1775L0.618943 55.4718L0.241528 52.4832L0.115723 50.212V45.789L0.367333 41.8441L0.493138 41.7246L2.1286 41.8441L12.3188 43.0395L13.8285 43.1591L14.9607 40.6487L15.2123 40.1706L12.822 39.6924L6.65759 38.3775L6.28017 38.0188L6.15437 37.0625V35.8671L6.9092 34.6717L7.66403 33.9545L8.67047 34.074L13.3253 35.628L17.0994 36.8234L17.4768 36.7039L18.7349 35.0303L20.1187 33.3567L20.622 32.759L20.7478 32.4004L20.1187 32.1613L17.7284 30.9659L8.16725 25.9452L6.15437 24.8694L5.90276 24.5107L7.28662 22.359L8.92208 20.0877L10.5575 18.0556L12.0672 16.382L13.5769 14.828L15.7156 12.7958L16.722 11.959L18.7349 10.405L19.2381 10.0463L19.7413 10.1659L21.3768 12.1981L23.3897 14.7084L24.8993 16.6211L26.5348 18.6533L28.5477 21.1636L31.1896 24.5107L31.4412 24.6303L33.5799 23.674L33.7057 23.3153L32.6993 21.6418L31.0638 19.1314L29.3025 16.382L27.4154 13.513L26.2832 11.7199L26.5348 11.1222L27.667 9.9268L28.4219 9.56818L30.4348 9.44864L31.0638 10.405L32.4476 13.2739L33.4541 15.1866L35.467 19.251L36.4734 21.4027L36.8508 22.2395L37.9831 22.0004L39.4927 21.5222H39.7443L38.9895 19.49L36.4734 12.9153L34.4605 7.53599L33.5799 5.14518L32.9509 3.59115V3.11299L36.4734 2.03712L39.7443 1.31988L42.7637 0.841715L46.1604 0.483093Z" fill="#FBC73B" />
                            <path d="M30.0574 58.5798H30.4348L30.5606 64.5568L30.938 65.1545L31.8187 65.9913V66.2304H32.0703L32.9509 67.1867L34.4606 68.5017L35.7186 69.458L37.3541 70.4143L38.9896 71.012H39.8702L40.8766 70.5339L42.6379 68.2626L43.5185 67.1867H43.6443L43.7701 71.4902L48.4249 71.8488H49.1798L49.9346 67.1867L50.0604 66.2304L50.312 66.4695L51.3185 71.012L51.4443 71.8488H54.9668L55.7216 71.4902L56.2249 70.8925L56.4765 70.0557L56.6023 66.7086H56.9797L58.4893 69.3385L59.1184 70.2948L59.37 70.4143H60.8797L62.5151 70.0557L64.2764 69.2189L65.786 68.143L67.2957 66.8281L68.428 65.6327L69.1828 64.5568L69.3086 58.5798L69.9376 58.8189L72.5795 60.3729L74.7182 61.6879L76.4795 62.6442L79.2472 64.3178L81.0085 65.3936L82.3923 66.2304L84.531 67.5453L85.5375 68.143L85.4117 68.8603L84.1536 71.2511L83.0214 73.0442V73.5224L83.6504 73.7615L85.0342 74.5982L87.1729 75.9132L88.0536 76.3913L88.6826 76.1523L89.9406 75.0764L90.4439 74.7178H90.8213L90.1923 77.9454L89.5632 81.0534V81.4121L91.0729 81.7707L96.2309 82.727L96.6083 82.8465V83.0856L95.2245 84.0419L93.2116 85.596L91.0729 87.15L89.3116 88.4649L87.4245 89.8994L85.7891 91.0948L84.0278 92.4098L82.0149 93.8443L81.5117 93.9638L80.8827 93.0075L79.8762 91.2144L78.4924 88.4649L78.3666 88.3454H21.251L18.7349 93.127L18.2317 93.9638L17.6027 93.7247L16.4704 93.0075L14.835 91.8121L11.3124 89.1822L9.04792 87.5086L5.52538 84.8787L3.38669 83.3247L3.00928 83.0856L3.13508 82.727L9.80276 81.5316L10.0544 81.4121L9.80276 79.6189L8.79631 74.7178L9.29954 74.8373L11.1866 76.3913L11.9414 76.2718L13.1995 75.435L15.9672 73.7615L16.5962 73.4028L16.4704 72.8051L15.0866 70.5339L14.0801 68.6212L14.2059 68.0235L16.3446 66.7086L19.3639 64.9155L21.7542 63.481L24.6478 61.8074L27.9187 59.8947L30.0574 58.5798Z" fill="#C19A6E" />
                            <path d="M48.6765 17.0992H49.8088L50.6894 17.5774L52.0733 19.0119L52.4507 19.8487L52.5765 20.4464V22.1199L52.0733 23.674L51.5701 25.1085V26.0648L52.0733 26.6625L52.9539 26.782H56.4765L56.7281 26.6625H60.5022L60.7538 28.9338H61.0054L61.257 29.5315L61.6345 29.7705L61.7603 30.3682H62.1377L62.2635 29.7705L63.0183 27.9774L63.1441 27.4993L63.5215 27.0211H66.2893L66.7925 26.782L67.1699 27.1407L68.8054 27.2602L69.057 27.4993L69.1828 28.6947V37.3016H69.4344V41.0074L69.686 41.1269L69.3086 41.2464L69.1828 43.2786H69.8118L69.4344 43.5177L69.3086 45.0717H70.315V45.1913L69.1828 45.3108V52.6028L69.3086 52.9614L69.686 53.2005L69.3086 53.32V58.3407L69.5602 58.5798H69.3086V64.5568L68.8054 65.2741L67.6731 66.4695L66.7925 67.4258L65.5344 68.5017L63.7732 69.5776L62.5151 70.1753L60.8796 70.5339H59.37L58.7409 69.9362L57.3571 67.6649L56.8539 66.7086L56.7281 66.8281L56.6023 70.0557L56.2248 71.1316L55.3442 71.8488L54.9668 71.9684H51.4442L51.3184 71.8488L50.8152 69.2189L50.1862 66.4695L49.3056 71.8488L49.1798 71.9684L46.412 71.8488L43.7701 71.6097L43.6443 71.4902L43.5185 67.3063L41.6314 69.6971L40.7508 70.773L39.8702 71.1316H38.9895L37.3541 70.5339L35.3412 69.3385L33.8315 68.0235L32.8251 67.1867L32.0703 66.4695V66.2304H31.8186L30.938 65.2741L30.5606 64.9155L30.4348 64.5568V58.5798L30.1832 58.4603H30.4348V55.9499L30.0574 55.8304L30.309 55.7108V53.4396L30.1832 52.9614L30.309 52.8419V45.4304L29.4283 45.1913V45.0717H30.309V43.3982H29.68V43.2786H30.4348L30.309 41.1269L29.8058 41.0074H30.309V37.4211L30.0574 37.3016H30.309V32.6395L30.4348 27.6188L30.5606 27.4993L33.2025 27.3797L33.3283 27.1407L33.4541 27.2602H36.4734L39.2411 27.3797L39.367 27.0211L39.4928 27.1407H41.7572L41.8831 26.6625V27.0211H43.3927L45.154 26.6625L46.0346 25.9452L46.412 24.9889V22.8372L46.1604 21.8809V20.0878L46.7895 18.5337L47.5443 17.6969L48.2991 17.2188L48.6765 17.0992Z" fill="#DBC6A8" />
                            <path d="M30.0574 58.5798H30.4348L30.5606 64.5568L30.938 65.1545L31.8186 65.9913V66.2304H32.0703L32.9509 67.1867L34.4606 68.5017L35.7186 69.458L37.3541 70.4143L38.9895 71.012H39.8702L40.8766 70.5339L42.6379 68.2626L43.5185 67.1867H43.6443L43.7701 71.4902L48.4249 71.8488H49.1798L49.9346 67.1867L50.0604 66.2304L50.312 66.4695L51.3184 71.012L51.4442 71.8488H54.9668L55.7216 71.4902L56.2248 70.8925L56.4764 70.0557L56.6023 66.7086H56.9797L58.4893 69.3385L59.1184 70.2948L59.37 70.4143H60.8796L62.5151 70.0557L64.2764 69.2189L65.786 68.1431L67.2957 66.8281L68.4279 65.6327L69.1828 64.5568L69.3086 58.5798L69.9376 58.8189L72.5795 60.3729L74.7182 61.6879L76.4795 62.6442L79.2472 64.3178L81.0085 65.3936L82.3923 66.2304L84.531 67.5453L85.5374 68.1431L85.4116 68.8603L84.1536 71.2511L83.0213 73.0442V73.5224L83.6504 73.7615L85.0342 74.5982L87.1729 75.9132L87.9277 76.3913L87.8019 76.8695L84.2794 79.4994L83.2729 80.2166H82.8955L82.0149 77.7063L81.8891 77.5868H17.7285L17.3511 78.5431L16.8478 80.0971L16.3446 80.2166L14.8349 79.0212L12.8221 77.5868L11.6898 76.75V76.3913L14.5833 74.5982L16.5962 73.4028L16.4704 72.8051L15.0866 70.5339L14.0801 68.6212L14.2059 68.0235L16.3446 66.7086L19.3639 64.9155L21.7542 63.481L24.6477 61.8074L27.9187 59.8947L30.0574 58.5798Z" fill="#00713D" />
                            <path d="M78.7439 32.52L79.2472 32.759L80.7568 34.4326L82.0149 36.1062L82.5181 36.7039L83.6503 36.4648L91.3245 33.9544H92.0793L93.0857 35.1499L93.4631 35.8671V37.4211L93.2115 38.1384L92.3309 38.497L85.0342 40.051H84.531L85.9148 43.0395L86.2923 43.1591L95.2244 42.0832L98.2437 41.7246H99.2502L99.5018 44.1154L99.6276 48.6579L99.5018 51.8855L98.8728 56.4281L97.9921 60.1338L97.6147 61.2097L96.4825 60.9706L88.9342 58.8189L88.3051 58.6993L87.6761 62.2856L87.4245 63.481V64.1982L89.5632 65.1545L90.4438 65.7522V67.0672L90.0664 68.0235L89.4374 68.8603L88.3051 69.6971L87.0471 69.0994L85.9148 68.3821H85.5374V68.143L84.9084 67.904L81.0084 65.5132L75.8504 62.4051L74.0892 61.4488L72.2021 60.2534L69.686 58.8189L69.5602 58.4603L69.1828 58.3407V53.2005V52.9614L69.0569 52.2442V47.8212L69.1828 45.3108L69.4344 45.1913L69.3086 45.0717V43.5177L69.4344 43.3981L69.1828 43.2786V41.2464L69.4344 41.0073L69.3086 40.6487V37.5407L69.4344 37.3016L71.1956 36.4648L74.0892 34.9108L77.7375 32.9981L78.7439 32.52Z" fill="#FBC73B" />
                            <path d="M20.622 32.759L21.5026 32.8786L25.1509 34.6717L27.7929 36.1062L30.309 37.4211L30.4348 38.1384V39.5728L30.309 41.1269L30.4348 41.366V43.2786L30.309 43.3981V45.0717V45.3108L30.4348 45.4303V52.8419L30.309 53.0809L30.4348 53.4396V55.7108V55.9499V58.4603L28.6735 59.5361L26.2832 60.9706L24.3961 62.0465L21.7542 63.6005L18.7349 65.3936L16.3446 66.8281L14.2059 68.143L13.9543 68.3821L13.3253 68.6212L11.564 69.6971L10.6834 69.2189L9.92852 68.6212L9.4253 67.904L9.17369 66.9476V65.7522L9.55111 65.3936L12.193 64.1982L12.3188 63.9591L11.6898 60.9706L11.4382 59.1775V58.5798L2.75763 61.0901L2.0028 61.2097L1.37377 59.1775L0.618943 55.4717L0.241528 52.4832L0.115723 50.212V45.789L0.367333 41.8441L0.493138 41.7246L2.12861 41.8441L12.3188 43.0395L13.8285 43.1591L14.9607 40.6487L15.2123 40.1705L12.822 39.6924L6.65759 38.3774L6.28018 38.0188L6.15437 37.0625V35.8671L6.9092 34.6717L7.66403 33.9544L8.67047 34.074L13.3253 35.628L17.0994 36.8234L17.4768 36.7039L18.7349 35.0303L20.1187 33.3567L20.622 32.759Z" fill="#FBC73B" />
                            <path d="M19.2381 10.0463L19.7413 10.1659L21.3768 12.1981L23.3897 14.7084L24.8993 16.6211L26.5348 18.6532L28.5477 21.1636L31.1896 24.5107L31.567 24.6303L31.8186 25.228L32.9509 26.6625L33.3283 27.4992L30.5606 27.6188L30.309 37.3016L29.5541 37.182L24.1445 34.3131L21.251 32.8786L20.7478 32.759V32.4004L20.1188 32.1613L17.7285 30.9659L8.16726 25.9452L6.15438 24.8694L5.90277 24.5107L7.28663 22.359L8.92209 20.0877L10.5576 18.0555L12.0672 16.382L13.5769 14.8279L15.7156 12.7958L16.722 11.959L18.7349 10.4049L19.2381 10.0463Z" fill="#FBC73B" />
                            <path d="M80.002 10.0463L80.5052 10.1659L82.2665 11.4808L83.6504 12.6762L84.6568 13.513L87.1729 15.9038L88.0535 16.8601L89.4374 18.4142L91.1987 20.6854L92.5825 22.7176L93.7148 24.5107L93.2116 24.9889L89.8148 26.782L86.1665 28.6947L83.3988 30.1291L80.5052 31.6832L76.3537 33.8349L73.3343 35.3889L71.1957 36.5843L69.8118 37.3016H69.1828L69.057 28.6947L68.9312 27.4992L68.8054 27.3797L67.1699 27.2602L66.7925 27.0211L66.9183 26.4234L68.4279 24.5107L69.686 22.9567L73.7118 17.936L75.2214 16.0234L77.7375 12.9153L79.2472 11.0027L80.002 10.0463Z" fill="#FBC73B" />
                            <path d="M24.3961 61.9269H24.6477L25.0252 63.0028L26.1574 65.5132L27.4155 67.6649L28.6735 69.2189L29.8058 70.5339L31.567 72.2074L33.0767 73.2833L33.5799 73.5224V73.7615L32.3219 74.5982L29.4283 76.2718L28.0445 77.1086L27.1639 77.5868H17.7285L17.3511 78.5431L16.8478 80.0971L16.3446 80.2166L14.8349 79.0212L12.8221 77.5868L11.6898 76.75V76.3913L14.5833 74.5982L16.5962 73.4028L16.4704 72.8051L15.0866 70.5339L14.0801 68.6212L14.2059 68.0235L16.3446 66.7086L19.3639 64.9155L21.7542 63.481L24.3961 61.9269Z" fill="#111111" />
                            <path d="M74.9698 61.9269L75.5988 62.166L77.8633 63.481L80.2536 64.9155L82.0149 65.9913L84.1536 67.3063L85.5374 68.1431L85.4116 68.8603L84.1536 71.2511L83.0213 73.0442V73.5224L83.6504 73.7615L85.0342 74.5982L87.1729 75.9132L87.9277 76.3913L87.8019 76.8695L84.2794 79.4994L83.2729 80.2166H82.8955L82.0149 77.7063L81.8891 77.5868H72.4537L70.6924 76.5109L67.5473 74.7178L66.2892 73.881L66.6667 73.2833L68.3021 71.9683L69.9376 70.4143L71.0698 69.0994L72.3279 67.4258L73.3343 65.7522L74.3408 63.72L74.7182 62.7637L74.9698 61.9269Z" fill="#121110" />
                            <path d="M78.744 32.52L79.2472 32.759L80.7569 34.4326L82.0149 36.1062L82.5181 36.7039L83.6504 36.4648L91.3245 33.9544H92.0793L93.0858 35.1499L93.4632 35.8671V37.4211L93.2116 38.1384L92.3309 38.497L85.0342 40.051H84.531L85.7891 42.8004V43.2786L81.2601 43.8763L73.586 44.7131L70.4409 45.0717H69.3086V43.5177L69.4344 43.3982L69.1828 43.2786V41.2464L69.4344 41.0073L69.3086 40.6487V37.5407L69.4344 37.3016L71.1957 36.4648L74.0892 34.9108L77.7376 32.9981L78.744 32.52Z" fill="#FAC63C" />
                            <path d="M20.622 32.759L21.5026 32.8786L25.151 34.6717L27.7929 36.1062L30.309 37.4211L30.4348 38.1384V39.5728L30.309 41.1269L30.4348 41.366V43.2786L30.309 43.3981V45.0717L28.1703 44.9522L21.5026 44.2349L14.3318 43.3981L13.9543 43.2786L14.0801 42.5614L15.0866 40.4096L15.2124 40.1705L12.8221 39.6924L6.65764 38.3774L6.28022 38.0188L6.15442 37.0625V35.8671L6.90925 34.6717L7.66408 33.9544L8.67052 34.074L13.3253 35.628L17.0995 36.8234L17.4769 36.7039L18.7349 35.0303L20.1188 33.3567L20.622 32.759Z" fill="#FAC63C" />
                            <path d="M69.1828 53.2005L70.1892 53.32L76.4795 55.1131L81.8891 56.6672L87.9278 58.4603L88.1794 58.5798V59.5362L87.6762 62.2856L87.4245 63.481V64.1982L89.5632 65.1546L90.4439 65.7523V67.0672L90.0665 68.0235L89.4374 68.8603L88.3052 69.6971L87.0471 69.0994L85.9149 68.3822H85.5375V68.1431L84.9084 67.904L81.0085 65.5132L75.8505 62.4051L74.0892 61.4488L72.2021 60.2534L69.686 58.8189L69.5602 58.4603L69.1828 58.3407V53.2005Z" fill="#F9C63C" />
                            <path d="M69.3086 9.44864L71.0699 9.56818L71.9505 9.9268L73.2086 11.2417L73.3344 11.8395L72.0763 13.7521L69.9376 17.0992L68.0506 19.9682L66.2893 22.7176L65.9119 23.4349L67.0441 23.7935L68.428 24.5107L67.6731 25.5866L66.5409 27.0211L65.7861 27.1406H63.5216L63.1442 27.7383L62.7667 28.9338L62.1377 30.3682H61.7603L61.5087 29.7705L61.0055 29.2924V28.9338H60.7539L60.5022 28.097L60.3764 26.782H56.7281L56.9797 25.7062L58.3636 21.5222L58.6152 21.0441L60.7539 21.5222L62.3893 22.0004H62.7667L63.7732 20.0877L66.1635 15.3061L68.1764 11.2417L69.057 9.56818L69.3086 9.44864Z" fill="#FBC73B" />
                            <path d="M29.6799 9.44864H30.4348L31.0638 10.405L32.4477 13.2739L33.4541 15.1866L35.467 19.251L36.4734 21.4027L36.8508 22.2395L37.9831 22.0004L39.2411 21.6418L39.8702 21.7613L40.4992 23.1958L41.3798 25.5866L41.7572 26.5429V27.1406L41.254 27.2602H39.4927L39.3669 27.1406L39.2411 27.3797H33.4541L32.3219 26.0648L31.567 25.1085L31.6928 24.5108L33.7057 23.5544L33.4541 22.8372L31.6928 20.0877L30.0574 17.5774L28.2961 14.828L26.6606 12.3176L26.2832 11.7199L26.5348 11.1222L27.6671 9.9268L28.4219 9.56818L29.6799 9.44864Z" fill="#FBC73B" />
                            <path d="M29.8058 55.9499H30.4348V58.4603L28.6735 59.5361L26.2832 60.9706L24.3961 62.0465L21.7542 63.6005L18.7349 65.3936L16.3446 66.8281L14.2059 68.1431L13.9543 68.3821L13.3253 68.6212L11.564 69.6971L10.6834 69.2189L9.92854 68.6212L9.42532 67.904L9.17371 66.9477V65.7522L9.55112 65.3936L12.193 64.1982L12.6963 63.9591L15.5898 62.6442L17.6027 61.6879L20.4962 60.3729L22.8865 59.1775L26.6606 57.3844L29.5541 56.0695L29.8058 55.9499Z" fill="#FAC63C" />
                            <path d="M30.1832 53.0809L30.4348 53.4396V55.7108L28.0445 56.9062L24.3962 58.5798L18.6091 61.3292L16.2188 62.5246L13.3253 63.8396L12.5705 64.0787L12.3189 63.9591L11.6898 60.9706L11.564 60.1338V58.4603L17.2253 56.7867L19.8672 56.0694L23.1381 55.1131L28.9251 53.4396L30.1832 53.0809Z" fill="#17100B" />
                            <path d="M69.1828 53.2005L70.1892 53.32L76.4795 55.1131L81.8891 56.6672L87.9278 58.4603L88.1794 58.5798V59.5362L87.6762 62.2856L87.2987 63.7201L87.1729 63.9592L86.4181 63.8396L82.2665 61.927L79.6246 60.612L76.7311 59.2971L71.9505 57.0258L69.3086 55.8304L69.1828 53.2005Z" fill="#141110" />
                            <path d="M80.1278 64.9155L81.0085 65.3936L82.3923 66.2304L84.531 67.5454L85.5374 68.1431L85.4116 68.8603L84.1536 71.2511L83.0213 73.0442V73.5224L83.6504 73.7615L85.0342 74.5983L87.1729 75.9132L87.9277 76.3914L87.8019 76.8695L86.0407 78.1845L85.4116 78.5431L82.5181 76.8695L78.4924 74.3592L76.4795 73.1638L75.9763 72.8051L76.1021 72.2074L77.4859 70.5339L78.9956 68.2626L80.1278 66.2304L80.3794 65.2741L80.1278 65.1545V64.9155Z" fill="#BD1514" />
                            <path d="M18.7349 65.2741H18.9865L19.8672 66.9476L21.3768 69.458L22.3833 70.8925L23.5155 72.327L23.3897 72.8051L22.1316 73.7615L20.2446 74.8373L18.9865 75.6741L16.093 77.4672L14.3317 78.5431L13.4511 78.0649L11.6898 76.75V76.3914L14.5833 74.5982L16.5962 73.4028L16.4704 72.8051L15.0866 70.5339L14.0801 68.6212L14.2059 68.0235L16.3446 66.7086L18.7349 65.2741Z" fill="#BE1514" />
                            <path d="M78.744 32.52L79.2472 32.759L80.7569 34.4326L82.0149 36.1062L82.3923 36.5843V36.943L80.3794 37.6602L75.8505 39.0947L70.315 40.8878L69.4344 41.0073L69.3086 40.6487V37.5407L69.4344 37.3016L71.1957 36.4648L74.0892 34.9108L77.7375 32.9981L78.744 32.52Z" fill="#19100A" />
                            <path d="M20.622 32.759L21.5026 32.8786L25.151 34.6717L27.7929 36.1062L30.309 37.4211L30.4348 38.1384V39.5728L30.309 41.0073L29.3026 40.8878L24.0187 39.2142L18.6091 37.4211L17.4769 37.0625L17.6027 36.4648L19.2381 34.4326L20.2446 33.2372L20.622 32.759Z" fill="#131110" />
                            <path d="M34.3348 78.5431H34.5864L34.7122 82.3684L36.9767 82.2488L36.5993 81.6511L36.7251 81.0534L37.3541 80.4557L37.7315 80.5753L37.9831 83.0856V84.6397L37.8573 84.9983H30.309L29.68 84.8787L28.6735 85.2374L28.1703 85.9546L27.4155 86.5523L26.409 86.7914L25.4026 86.6719L24.6478 86.1937L24.1445 85.596L24.0187 85.2374V83.3247L24.3962 82.4879L24.8994 82.3684L24.7736 83.5638L25.0252 84.042L25.4026 84.281L26.2832 84.4006L27.2897 83.9224L27.5413 83.6833L27.4155 82.8466L27.0381 82.3684L27.2897 81.7707L27.9187 81.2925L28.4219 81.4121L28.6735 82.2488L29.0509 82.3684L29.5542 81.8902L30.0574 82.0098L30.6864 82.3684L31.0638 82.4879L30.6864 81.7707L30.938 81.2925L31.3154 80.8144H31.567L31.8187 82.1293L31.9445 82.2488H33.5799L33.4541 80.4557L33.3283 79.3799L33.7057 79.0213L34.3348 78.5431Z" fill="#3D1E09" />
                            <path d="M55.5958 80.3362H56.0991L56.3507 82.2488H58.6152L57.9861 81.6511L57.8603 81.0534L58.8668 80.4557H59.999L60.7539 80.8143L61.3829 81.412L61.2571 81.7707L60.8797 82.0097V82.2488H63.27L64.0248 81.173L64.528 80.6948L65.2828 80.5753L65.7861 81.0534L66.6667 82.727L66.7925 83.2052L65.6603 85.1178L65.2828 85.4764L64.528 85.3569L64.0248 84.9983H59.8732L59.2442 84.7592L58.8668 84.9983H56.2249L55.8475 84.6396L55.7216 83.8029L55.3442 84.1615L55.0926 84.5201L54.3378 84.4006L53.583 83.9224L53.4572 83.8029V82.6075L53.9604 81.7707L54.841 81.173L55.2184 81.0534L55.5958 80.3362Z" fill="#3E1E09" />
                            <path d="M84.2794 40.1706L84.7826 40.6487L85.7891 42.8005V43.2786L81.2601 43.8763L73.586 44.7131L70.4408 45.0717H69.3086V43.5177L70.315 43.1591L78.9956 41.2464L84.2794 40.1706Z" fill="#1A110A" />
                            <path d="M15.2123 40.2901L16.5962 40.4096L22.2574 41.605L27.7929 42.8005L29.6799 43.2786L30.309 43.3982V45.0717L28.1703 44.9522L21.5026 44.2349L14.3317 43.3982L13.9543 43.2786L14.0801 42.5614L15.0865 40.4096L15.2123 40.2901Z" fill="#1C110A" />
                            <path d="M45.9088 78.4236L46.2862 78.5431L46.6636 79.3799L46.5378 81.173L48.2991 80.4557H49.5571L50.1862 81.173L50.312 81.4121V83.4443L49.8087 84.9983H43.7701L43.5185 85.7155L42.6379 86.6719L42.1346 86.9109L41.3798 86.7914L40.2476 86.1937V85.8351L41.6314 85.4764L42.8895 84.4006L42.7637 83.6833L42.0088 82.6075L42.5121 81.7707L42.7637 81.5316H43.1411L43.3927 82.2489H45.2798L45.5314 82.0098L45.4056 80.4557L45.154 79.1408L45.783 78.5431L45.9088 78.4236Z" fill="#3E1E0A" />
                            <path d="M2.12861 42.6809L2.88344 42.8004L3.88988 43.6372V43.8763L4.51891 43.7568L4.3931 44.474L4.01568 45.0717H4.26729V45.4303H4.01568L3.88988 46.2671L3.51246 46.028L3.00924 47.2235L2.63183 48.6579L2.50602 48.897V51.4074L2.75763 51.5269L3.13505 53.0809L3.38666 53.32L3.51246 54.1568L3.76407 54.2763L3.88988 53.9177L4.3931 54.5154V54.7545H4.14149V55.3522L4.64471 55.5913L4.14149 55.7108L4.26729 56.189L3.63827 56.3085L3.38666 56.4281L3.13505 57.0258L3.76407 57.1453L3.88988 57.5039L3.51246 57.743L4.14149 57.9821H5.02213L5.39954 57.743L5.52535 58.4603H5.77696V58.6993L5.02213 59.297L3.76407 59.5361L2.88344 59.6557L2.38022 59.058V58.6993H2.63183L2.0028 57.1453V55.5913L1.49958 54.874L1.37378 54.3959L1.12217 52.4832V46.8648L0.996361 45.5499L0.870556 43.9959L0.744751 43.5177L1.37378 43.0395L2.12861 42.6809Z" fill="#FBBA3B" />
                            <path d="M44.6508 90.8558H46.5378L47.2927 91.2144L47.9217 91.9316L48.4249 93.127L48.5507 93.9638V96.1156L48.1733 97.7891L47.4185 98.865L46.7894 99.3432L45.783 99.7018H44.9024L44.0217 99.3432L43.2669 98.7455L42.7637 97.6696L42.8895 97.0719L43.0153 96.9523H43.8959L44.3992 97.4305L44.7766 98.0282L45.6572 98.1477L46.2862 97.9087L46.5378 97.311L46.9153 96.4742L46.0346 96.5937H44.7766L43.8959 96.2351L42.8895 95.1592L42.6379 94.5615V93.0075L43.2669 91.8121L44.1475 91.0949L44.6508 90.8558ZM45.0282 92.1707L44.2733 92.7684L44.1475 93.0075V94.3225L44.525 94.9202L44.9024 95.1592H45.9088L46.6636 94.6811L46.9153 94.2029V93.2466L46.5378 92.5293L45.9088 92.1707H45.0282Z" fill="#393632" />
                            <path d="M50.5636 90.7362H55.2184L55.3442 90.8557V92.1707L51.9475 92.2902L51.8217 92.5293V93.6052H53.5829L54.5894 94.0833L55.2184 94.681L55.7216 95.6374V97.4305L55.2184 98.3868L54.5894 99.104L53.5829 99.5822L53.0797 99.7017H52.0733L51.0668 99.3431L50.1862 98.6259L49.683 97.55V96.9523L49.8088 96.8328H51.0668L51.6959 97.7891L52.0733 98.0282H53.2055L53.7087 97.55L53.9604 96.8328L53.8346 95.7569L53.2055 95.1592H52.0733L51.3185 95.6374L50.941 95.7569H50.0604L49.9346 95.6374L50.0604 94.0833L50.4378 90.8557L50.5636 90.7362Z" fill="#3A3733" />
                            <path d="M16.4704 57.0258H16.8478L17.6027 61.4488V61.8074L15.5898 62.7637L12.6963 64.0787L12.3189 63.9591L11.6898 60.9706L11.564 60.1338V58.4603L16.4704 57.0258Z" fill="#BE1614" />
                            <path d="M82.6439 57.0258L83.902 57.2649L87.9278 58.4603L88.1794 58.5798V59.5361L87.6761 62.2856L87.2987 63.7201L87.1729 63.9591L86.4181 63.8396L82.2665 61.9269L81.7633 61.5683H82.0149L82.5181 58.8189L82.6439 57.0258Z" fill="#BE1514" />
                            <path d="M78.744 32.52L79.2472 32.759L80.7568 34.4326L82.0149 36.1062L82.3923 36.5843V36.943L80.3794 37.6602L77.3601 38.6165H77.1085L76.8569 37.8993L75.7246 36.5843L74.3408 35.1499L74.0892 34.9108L77.7375 32.9981L78.744 32.52Z" fill="#BD1614" />
                            <path d="M20.622 32.759L21.5026 32.8786L25.151 34.6717L25.5284 35.0303L24.7736 35.628L23.8929 36.5843L22.6349 38.1384L22.5091 38.6165L21.88 38.497L17.4769 37.0625L17.6027 36.4648L19.2381 34.4326L20.2446 33.2372L20.622 32.759Z" fill="#BE1614" />
                            <path d="M68.428 78.5431H68.8054L68.9312 81.4121L69.057 82.2488H72.4537L72.2021 81.8902L71.0699 81.6511H70.4408V81.0534L71.0699 80.3362L71.8247 80.2167L72.4537 80.5753L73.7118 81.7707L73.9634 82.1293L74.844 82.4879L74.3408 84.281L73.9634 84.9983H68.5538L68.0505 84.5201L67.9247 82.8466V79.0213L68.428 78.5431Z" fill="#3F1E0A" />
                            <path d="M42.3862 49.3752H42.6379V54.5154L43.1411 54.635H44.6507L44.2733 54.0373L43.7701 53.5591L43.8959 53.0809L45.0282 52.2442L45.6572 52.3637L46.7894 53.32L46.5378 53.9177L46.0346 54.3959H45.783V54.635H48.5507L48.0475 53.4396V52.8419L49.0539 52.2442L49.3055 53.4396L49.8088 54.3959V54.7545H50.1862V55.3522L49.9346 55.5913L50.8152 55.8304H52.199L52.9539 55.4718L53.2055 55.5913L52.199 56.3085H51.1926L50.0604 56.0695L49.8088 55.9499V56.6672H49.4313L49.3055 56.3085L48.8023 56.189L48.6765 56.6672L48.1733 56.5476V56.0695H48.4249V55.8304H49.3055V55.5913L47.9217 55.3522V55.1131H38.8637L37.8573 54.874L37.6057 54.2763V53.5591L38.1089 52.9614L39.2411 52.1246H39.6185L39.9959 53.32L40.4992 54.5154L41.7572 54.635V50.6901L41.6314 49.8533L42.3862 49.3752Z" fill="#311606" />
                            <path d="M30.1832 53.0809L30.4348 53.4396V55.7108L28.0445 56.9062L24.3961 58.5798L23.7671 58.6993L23.5155 56.9062V55.1131L24.3961 54.7545L30.1832 53.0809Z" fill="#00713D" />
                            <path d="M97.3631 48.897H97.489L97.6148 49.4947H97.9922L98.118 50.6901L98.2438 51.0488L98.118 51.5269L98.3696 52.3637L98.2438 52.9614V53.32L98.118 54.3959L97.9922 55.1131L97.7406 55.8304L97.489 57.2649L97.2373 58.1017L96.8599 59.058L96.3567 59.4166L95.3503 59.5361L95.0987 59.1775L95.2245 58.5798L95.4761 57.6235L95.0987 56.9063L94.7212 56.6672L94.5954 55.9499L94.218 55.8304L94.5954 54.635L94.9728 54.5154V54.2764H94.7212L94.5954 53.6787H94.847V53.4396H95.4761L95.7277 52.6028L96.6083 51.6465L96.9857 51.0488V49.4947L97.3631 48.897Z" fill="#FBBA3B" />
                            <path d="M58.6152 21.0441L60.7539 21.5222L62.3893 22.0004L62.6409 22.359L62.0119 23.7935L60.628 26.5429L60.3764 26.782H56.7281L56.9797 25.7061L58.3636 21.5222L58.6152 21.0441Z" fill="#BE1614" />
                            <path d="M69.1828 53.2005L70.1892 53.32L73.9634 54.3959L75.9763 54.9936L76.1021 55.8304L75.9763 58.2212L75.8505 58.5798L74.9698 58.4603L71.9505 57.0258L69.3086 55.8304L69.1828 53.2005Z" fill="#00713D" />
                            <path d="M56.9797 90.7362H62.7667L62.8925 90.8557L62.7667 92.0512L61.2571 94.5615L60.3764 96.4742L59.6216 98.865L59.4958 99.3431H57.8603L57.9861 98.5063L58.6152 96.7132L59.1184 95.5178L60.3764 93.2466L60.8796 92.2902L56.8539 92.1707V90.8557L56.9797 90.7362Z" fill="#3D3934" />
                            <path d="M84.2794 40.1706L84.7826 40.6487L85.7891 42.8005V43.2786L81.2601 43.8763H80.3795L79.4988 41.8441L79.373 41.366L78.9956 41.2464L84.2794 40.1706Z" fill="#BE1614" />
                            <path d="M15.2123 40.2901L16.5962 40.4096L20.4962 41.2464L20.2445 41.4855L19.8671 42.3223L19.3639 43.2786L19.2381 43.8763L17.351 43.7568L14.3317 43.3982L13.9543 43.2786L14.0801 42.5614L15.0865 40.4096L15.2123 40.2901Z" fill="#BE1614" />
                            <path d="M39.3669 90.7362H39.996L40.1218 90.8557V99.3431L39.996 99.4627L38.6121 99.3431L38.4863 99.104V93.7247L36.725 93.6052V92.6489L37.3541 92.2902L38.3605 91.9316L38.9895 90.8557L39.3669 90.7362Z" fill="#373531" />
                            <path d="M39.2412 21.6418L39.8702 21.7613L40.4992 23.1958L41.3799 25.5866L41.7573 26.5429V27.1407L41.254 27.2602H39.4928L38.9896 26.5429L37.4799 23.4349L37.1025 22.359L37.9831 22.0004L39.2412 21.6418Z" fill="#BE1614" />
                            <path d="M62.0119 40.8878H62.1377L62.2635 46.2671H63.7731L63.2699 44.9522L63.3957 44.3545L64.6538 43.3982L65.5344 42.8005H65.786L65.5344 43.2786L64.528 43.8763H64.2764L64.4022 44.7131L65.0312 45.789V46.0281L65.786 46.2671H67.1699L66.9183 46.6258H58.1119L57.4829 46.2671L57.2313 45.789V45.0717L58.2377 44.1154L59.1183 43.5177L60.1248 45.9085V46.1476H61.3828V42.0832L61.257 41.4855L62.0119 40.8878Z" fill="#3C1D09" />
                            <path d="M38.8637 40.7683H39.1153L38.9895 46.3867L40.3734 46.1476L40.8766 45.789H41.1282L41.254 46.2671L41.7572 46.3867L41.6314 45.1913L42.3862 44.7131H42.6379L42.8895 45.789L43.5185 46.2671L43.7701 46.3867L43.1411 44.8327V44.1154L43.5185 43.6373H43.8959L44.3991 45.1913L45.0282 46.2671H45.4056L45.2798 45.4304L45.0282 44.9522L45.154 44.235L45.6572 43.8763H46.0346L46.2862 44.9522L47.041 46.6258L46.7894 46.7453H38.2347V41.6051L38.8637 40.7683Z" fill="#331706" />
                            <path d="M20.1188 64.4373L20.3704 64.5568L19.7413 65.1545L19.8671 65.7522L20.7478 65.3936L21.3768 65.1545V64.9154L22.0058 64.7959V65.3936H21.7542L21.5026 66.7086L21.6284 67.1867L22.0058 68.2626V68.7407H22.2574L22.5091 69.2189V69.5775H22.7607L23.2639 70.4143L23.8929 71.9683L23.7671 72.6856L22.8865 73.5224L22.7607 74.0005L22.3832 74.3592L21.5026 74.8373L20.4962 74.7178L20.9994 74.2396L22.6349 73.2833L23.3897 72.6856L23.2639 72.2074L21.6284 70.0557L20.3704 68.0235L18.9865 65.6327L19.1123 65.035L20.1188 64.4373Z" fill="#1B100A" />
                            <path d="M56.9797 33.1177H57.2313L57.3571 33.8349V35.9866L58.2377 36.1062L58.6151 35.7476H58.8668L58.9926 35.1499L59.2442 34.7912H59.8732L59.999 35.3889H61.1312L61.3829 34.7912H62.6409L62.8925 34.9108L63.0183 35.2694V36.4648L62.5151 36.5844L62.2635 36.3453L60.7538 36.2257H59.6216L58.7409 36.1062L58.3635 36.4648L57.3571 36.3453L56.4765 36.1062L55.3442 36.2257L54.4636 35.9866L54.3378 35.3889L54.4636 34.9108L55.5958 34.4326H55.8474V33.9545L55.47 33.8349L55.5958 33.3568L56.8539 33.4763L56.9797 33.1177Z" fill="#B48D64" />
                            <path d="M33.5799 23.674L34.0831 23.7935L35.2154 25.4671L36.3476 27.2602V27.3797H33.4541L32.3218 26.0648L31.567 25.1084L31.6928 24.5107L33.5799 23.674Z" fill="#BE1615" />
                            <path d="M65.6602 23.4349L66.4151 23.5544L68.4279 24.5107L67.6731 25.5866L66.5409 27.0211L65.786 27.1406H63.5215L63.7732 26.5429L65.0312 24.3912L65.6602 23.4349Z" fill="#BE1614" />
                            <path d="M57.9861 49.3752H58.2377L58.1119 54.9936L57.9861 55.1131H54.4636L53.8346 54.874L53.4572 54.1568L53.583 53.5591L54.3378 52.7223L55.2184 52.1246H55.47L56.4765 54.5154L57.3571 54.7545V51.0488L57.2313 49.9729L57.9861 49.3752Z" fill="#241409" />
                            <path d="M48.9281 18.2946L49.9346 18.6533L50.312 19.1314L50.4378 19.6096V20.6855L50.0604 21.8809L49.4314 22.2395L48.6765 22.359L47.7959 21.8809L47.2927 20.805V19.8487L47.6701 19.1314L48.4249 18.4142L48.9281 18.2946Z" fill="#FCC83B" />
                            <path d="M59.7474 49.3752H59.999V54.7545L61.1312 54.5154L61.3828 53.4396L62.7667 52.2442L63.1441 52.1246L63.3957 52.9614L64.1506 54.7545L64.0247 55.2327L63.6473 55.4718L62.6409 55.3522L61.8861 54.9936L61.0054 55.1131H59.2442V50.6901L59.1183 49.7338L59.7474 49.3752Z" fill="#1E120A" />
                            <path d="M23.1381 55.1131H23.5155L23.7671 58.2212L23.8929 58.8189H23.6413V58.5798L23.2639 58.4603V58.2212L22.5091 58.3407L21.3768 58.8189L20.7478 59.058L20.2446 58.9384L20.3704 58.5798H20.622V58.3407L20.9994 58.1016H22.0058L22.6349 57.743L22.7607 57.3844L21.6284 57.5039V57.2649L22.3832 57.0258L21.251 57.1453L20.8736 57.3844L20.1188 57.2649V56.9062L18.9865 57.2649L18.4833 57.1453L18.3575 56.6672L18.4833 56.4281L23.1381 55.1131Z" fill="#131110" />
                            <path d="M60.2506 93.4857L60.3764 93.7247L61.257 93.6052L61.6344 93.8443L60.5022 96.1155L59.7474 98.3868L59.4958 99.3431H57.8603L57.9861 98.5064L58.6151 96.7133L59.1183 95.5178L60.2506 93.4857Z" fill="#3B3733" />
                            <path d="M44.1475 33.2372L44.6508 33.3568V33.7154H44.3992L44.6508 34.7912L44.525 35.3889L44.7766 36.2257L44.3992 36.3453L44.1475 36.2257V35.9866H43.6443V36.2257L42.7637 36.5843L41.883 36.4648L41.6314 36.2257L40.1218 36.3453L39.4928 36.4648L38.4863 36.1062H37.7315L37.3541 36.2257L37.6057 35.7476L38.3605 34.6717L38.7379 34.7912V35.5085L38.9895 35.3889H39.7444L39.8702 35.7476H40.1218L39.996 34.6717L40.4992 34.5522L41.1282 35.2694L41.7572 35.5085L42.1347 36.1062L42.7637 36.2257L42.5121 35.7476L42.2605 35.5085V34.9108L42.7637 35.1499L43.2669 35.2694L43.3927 33.8349L43.7701 33.3568L44.1475 33.2372Z" fill="#AF8A61" />
                            <path d="M24.7735 35.5085L25.0251 35.628L24.2703 36.5843L23.6413 37.3016L23.2639 38.0188V38.2579L23.6413 38.3775L23.7671 37.8993L24.5219 36.7039L24.6477 37.1821L25.2767 36.943L26.409 37.3016L26.2832 37.7798L25.78 37.6602L25.1509 38.0188L24.5219 37.8993L24.2703 38.2579L24.6477 38.6165L25.6542 38.9752V39.2142L26.9122 39.3338L27.4154 39.5729L28.2961 39.6924L28.4219 40.051L28.7993 39.9315L29.5541 40.4096L29.6799 40.7683L29.3025 40.8878L24.0187 39.2142L22.509 38.6165L22.6348 37.8993L24.1445 36.2257L24.7735 35.5085Z" fill="#1B110A" />
                            <path d="M39.8701 78.4236H40.1218L40.2476 81.5316V83.9224L39.8701 84.7592L39.6185 85.1178H39.2411L38.9895 82.3684L38.8637 80.6948V79.1408L39.8701 78.4236Z" fill="#3E1E09" />
                            <path d="M47.7959 59.6557H48.1733V62.5246L47.5443 62.4051L47.2927 62.5246L45.2798 62.6442H43.1411L42.7637 63.0028H42.3863L42.1346 62.5246L42.3863 61.8074H42.7637L42.8895 62.166L43.3927 62.2856V61.0902L43.6443 61.3292V62.2856L44.5249 62.0465L44.9024 61.5683L45.0282 62.0465L45.4056 61.9269L45.6572 62.166V61.3292L46.2862 61.2097L47.041 61.3292L46.9152 60.3729L47.5443 60.2534L47.7959 59.6557Z" fill="#AC8760" />
                            <path d="M52.9539 39.812H53.0797L53.2055 46.6258L53.3313 46.8648L54.9668 47.343H55.9732L56.728 47.1039L56.2248 47.7016H55.0926L52.5765 47.1039L52.3249 45.1913L52.199 41.0074L52.0732 40.5292L52.7023 39.9315L52.9539 39.812Z" fill="#361806" />
                            <path d="M70.4408 36.8234L71.1957 36.943L71.3215 37.4211H71.0699L71.1957 37.8993L70.9441 38.6165L71.1957 39.3338L70.4408 40.4096L70.0634 40.7683L69.5602 40.8878L69.3086 40.1706V37.5407L69.4344 37.3016L70.4408 36.8234Z" fill="#141210" />
                            <path d="M70.9441 43.0396H71.9505L72.9569 44.3545V44.7131L71.4473 44.9522L70.4408 45.0717H69.3086V43.5177L70.315 43.1591L70.9441 43.0396Z" fill="#00713D" />
                            <path d="M27.7929 42.92L29.1767 43.1591L30.309 43.3981V45.0717L28.1703 44.9522L26.7864 44.7131L26.9122 44.1154L27.5413 43.0395L27.7929 42.92Z" fill="#00713D" />
                            <path d="M50.312 59.6557L50.8152 59.7752L51.0668 60.0143L51.8216 59.8948L52.0733 59.7752V61.0902L52.1991 62.166L52.3249 62.5246L51.8216 62.4051L51.4442 62.2856L50.941 62.4051V62.6442L49.8088 62.5246L49.4313 62.166L49.3055 61.6879L49.4313 61.2097L50.1862 60.9706H50.6894L50.8152 60.3729L50.312 60.0143V59.6557Z" fill="#B79167" />
                            <path d="M78.4924 57.3844L78.6182 57.6235L79.4988 57.5039L80.1278 57.8626L81.0085 58.2212L81.5117 58.3407L81.6375 58.8189L81.2601 59.4166L80.8827 59.8948L80.1278 60.0143L79.4988 59.7752L79.6246 59.5361L80.2537 59.6557L80.6311 59.5361L79.6246 59.058L79.1214 58.9384L78.8698 59.1775L78.4924 58.4603L77.7375 58.1016V57.8626L78.4924 57.3844Z" fill="#16100B" />
                            <path d="M48.8024 39.2142V39.5729L48.4249 40.2901L48.2991 40.8878V42.0832L48.6765 43.2786L49.5572 44.7131L50.0604 45.0717L50.4378 45.789L51.1926 46.5062V46.7453H48.5507L48.6765 46.2671L49.3056 45.6694H49.5572L49.054 44.7131L48.1733 43.3982L47.6701 42.0832L47.9217 40.5292L48.5507 39.4533L48.8024 39.2142Z" fill="#24140A" />
                            <path d="M48.8023 33.9544L49.3056 34.074L49.683 34.6717L50.8152 35.0303V35.3889L50.5636 35.5085L48.9281 35.3889L48.8023 35.2694V36.2257L47.1669 36.3452L46.6636 36.7039H45.9088V36.2257H46.7894V35.3889L46.5378 35.2694L46.9153 34.9108L47.5443 35.3889L47.9217 34.9108H48.9281L48.6765 34.074L48.8023 33.9544Z" fill="#A58059" />
                            <path d="M58.9925 43.5177L59.2441 43.6372L60.1248 46.1476H60.3764V46.3867H59.7474V46.1476H58.9925L58.4893 45.1913L57.9861 45.0717L58.1119 45.5499L58.4893 45.9085L58.3635 46.3867L57.4829 46.2671L57.2313 45.789V45.0717L58.2377 44.1154L58.9925 43.5177Z" fill="#341705" />
                            <path d="M38.8637 40.7683H39.1153L38.9895 46.3867L40.4992 46.6258V46.7453H38.2347V41.6051L38.8637 40.7683Z" fill="#3C1D09" />
                            <path d="M42.3863 49.3752H42.6379V54.5154L42.8895 54.635V54.874L41.8831 54.9936L41.7573 54.635V50.6901L41.6315 49.8533L42.3863 49.3752Z" fill="#1A110A" />
                            <path d="M39.2411 52.1246H39.6185L40.3734 54.5154L39.8701 54.635L39.3669 54.1568L39.2411 54.5154L38.7379 54.3959L38.2347 53.9177L37.8573 54.0373L37.6057 54.2763V53.5591L38.1089 52.9614L39.2411 52.1246Z" fill="#331605" />
                            <path d="M52.9539 33.1177H53.2055L53.3313 33.8349V35.628L53.5829 36.2257H52.1991L51.0668 36.5844L51.1926 36.2257H51.4442L51.0668 35.0303L51.5701 34.9108L51.9475 35.3889H52.3249V33.9545L52.9539 33.1177Z" fill="#B58F65" />
                            <path d="M36.3476 44.3545L36.8509 44.5936L37.4799 46.1476L37.2283 46.8648L36.3476 47.9407L35.3412 48.4189L34.3348 48.2993L33.8315 47.8212H35.5928L36.4735 47.343L36.5993 46.5062L35.9702 45.3108L36.096 44.7131L36.3476 44.3545Z" fill="#22130A" />
                            <path d="M45.6572 43.8763H46.0346L46.2863 44.9522L47.0411 46.6257L46.7895 46.7453H45.5314L44.2734 46.6257L44.3992 46.3867L45.4056 46.2671L45.2798 45.4303L45.0282 44.9522L45.154 44.2349L45.6572 43.8763Z" fill="#341706" />
                            <path d="M55.2184 52.1246H55.47L56.4765 54.5154V54.7545L56.7281 54.874H56.099L55.8474 54.635V54.2763H55.5958V53.9177L55.0926 53.7982L54.7152 53.4395H54.4636L54.3378 54.0373L54.212 54.3959L53.7088 54.2763L53.5829 53.5591L54.3378 52.7223L55.2184 52.1246Z" fill="#201209" />
                            <path d="M65.0312 45.789L65.6602 46.0281H67.1699L67.2957 46.5062L66.9183 46.8648H58.3635L57.7345 46.7453L56.7281 47.2235L56.4764 46.9844L57.6087 46.2671L58.1119 46.5062H66.9183L67.0441 46.3867H65.786L65.0312 46.0281V45.789Z" fill="#C19A6E" />
                            <path d="M45.0282 52.2441L45.6572 52.3637L46.7895 53.32L46.6637 53.6786L46.5379 53.4395L45.783 53.32L45.5314 53.0809L44.9024 53.2005L45.4056 53.4395L45.783 53.6786L45.5314 54.3959L44.6508 54.635L44.2734 54.0372L43.7701 53.5591L43.8959 53.0809L45.0282 52.2441Z" fill="#331706" />
                            <path d="M54.4636 53.32L54.841 53.4395V53.6786L55.5958 53.9177V54.2763H55.8475L56.0991 54.7545L56.8539 54.635L57.9861 54.9936V55.1131H54.4636L53.8346 54.874L53.4572 54.1568L53.583 53.7982L53.7088 54.2763H53.9604L54.0862 54.0373H54.212L54.3378 53.4395L54.4636 53.32Z" fill="#361806" />
                            <path d="M49.9346 54.7545H50.1862V55.3522L49.9346 55.5913L50.8152 55.8304H52.1991L52.9539 55.4718L53.2055 55.5913L52.1991 56.3085H51.1926L50.0604 56.0695L49.8088 55.9499V56.6672H49.4314L49.3055 56.3085L48.8023 56.189L48.6765 56.6672L48.1733 56.5476V56.0695H48.4249V55.8304H49.3055V55.5913L47.9217 55.3522V55.1131H49.9346V54.7545Z" fill="#C19A6E" />
                            <path d="M65.5344 42.8004H65.786L65.5344 43.2786L64.5279 43.8763H64.2763L64.4021 44.7131L65.0312 45.789V46.028L65.4086 46.1476V46.3867L64.4021 46.5062L64.1505 46.3867L63.8989 45.6694L63.5215 45.5499L63.2699 44.9522L63.3957 44.3545L64.6538 43.3981L65.5344 42.8004Z" fill="#351705" />
                            <path d="M63.0183 52.1246L63.2699 52.3637L63.3957 53.32L63.0183 53.4395V54.7545L62.3893 54.5154L62.1377 54.1568H61.5086L61.3828 54.635L61.257 53.6786L62.1377 52.7223L63.0183 52.1246Z" fill="#361806" />
                            <path d="M22.0059 59.4166L22.2575 59.5361L20.4962 60.4925L17.8543 61.6879H17.6027L17.4769 60.8511L17.9801 61.0902L18.4833 60.9706L18.7349 60.3729L20.3704 59.6557L22.0059 59.4166Z" fill="#21120A" />
                            <path d="M43.5185 43.6372H43.8959L44.3992 45.1913L44.9024 46.1476V46.3867L44.0217 46.6258L43.8959 46.028H43.6443L43.1411 44.8326V44.1154L43.5185 43.6372Z" fill="#1E120A" />
                            <path d="M48.9281 52.2441H49.0539L49.3055 53.4395L49.8088 54.3959L49.9346 54.9936H48.5507L49.0539 54.5154L48.4249 54.1568L48.0475 53.4395V52.8418L48.9281 52.2441Z" fill="#311606" />
                            <path d="M59.7474 49.3752H59.999L59.7474 54.635L59.37 54.7545L59.2442 50.6901L59.1183 49.7338L59.7474 49.3752Z" fill="#19100A" />
                            <path d="M49.9346 38.8556L50.5636 39.2142L51.3184 40.4096L51.57 41.8441L51.4442 43.0395L51.0668 43.9959L50.312 44.9522L50.0604 45.0717L50.312 44.5936L50.8152 43.7568L51.0668 42.92V41.366L50.4378 40.1706L49.9346 39.5729L49.8088 38.9752L49.9346 38.8556Z" fill="#27160B" />
                            <path d="M68.4279 78.5431H68.8054V82.2488L68.5537 82.4879L68.1763 82.3684V79.0213L68.4279 78.5431Z" fill="#341605" />
                            <path d="M21.88 58.8189L22.1317 59.058L22.2575 59.4166L21.251 59.6557L20.1188 59.8948L18.7349 60.4925L18.4833 60.9706L17.7285 61.2097L17.4769 60.8511V59.7752L18.7349 60.0143L20.8736 59.2971L21.251 59.1775L21.88 58.8189Z" fill="#111010" />
                            <path d="M55.47 61.2097L56.099 61.3293L56.728 61.5683L56.8539 62.0465L57.2313 62.166V61.6879H57.4829L57.7345 62.0465L57.6087 62.5247L56.9797 62.6442L56.3506 62.4051V62.6442L55.3442 62.5247L55.2184 62.166L55.3442 61.3293L55.47 61.2097Z" fill="#B58F65" />
                            <path d="M62.0118 40.8878H62.1377V44.7131L62.0118 44.474L61.6344 44.8327L61.3828 42.0832L61.257 41.4855L62.0118 40.8878Z" fill="#341605" />
                            <path d="M72.9569 42.5614H73.9634L74.0892 43.1591L73.3343 43.8763H72.7053L72.5795 44.1154L71.9505 43.1591L71.5731 42.92L72.9569 42.5614Z" fill="#131110" />
                            <path d="M45.9088 78.4236L46.2862 78.5431L46.6637 79.3799L46.5378 79.858L46.0346 80.5753L45.6572 80.6948L45.4056 80.4557L45.154 79.1408L45.783 78.5431L45.9088 78.4236Z" fill="#351705" />
                            <path d="M17.2253 56.7867H18.2317L18.1059 57.6235L17.4769 58.5798L17.6027 59.5361H17.2253L16.9736 58.4603L16.8478 56.9062L17.2253 56.7867Z" fill="#19110F" />
                            <path d="M39.8702 80.4557L40.1218 80.6948L40.2476 81.5316V83.9224L39.8702 84.7592L39.7444 84.9983L39.3669 84.8788L39.6186 83.5638L39.7444 81.173L39.8702 80.4557Z" fill="#351705" />
                            <path d="M46.7894 34.9108L47.1669 35.0303L47.5443 35.3889L48.0475 35.0303L48.2991 36.1062L48.5507 36.2257L47.1669 36.3453L46.6636 36.7039H45.9088V36.2257H46.7894V35.3889L46.5378 35.2694L46.7894 34.9108Z" fill="#C19A6E" />
                            <path d="M38.1089 54.9936H45.9088L47.9217 55.1131V55.2327L43.1411 55.3522H40.1218L38.3605 55.2327L38.1089 54.9936Z" fill="#C19A6E" />
                            <path d="M37.9831 53.7982L38.4863 54.0373L38.8638 54.3959H39.2412L39.367 54.1568L39.8702 54.3959V54.635L40.4992 54.5154L41.0024 54.635V54.8741L39.7444 54.9936H38.1089L37.8573 54.8741L37.7315 54.0373L37.9831 53.7982Z" fill="#1B110A" />
                            <path d="M49.3056 45.6694H49.8088L49.9346 45.9085H50.312L50.4378 46.1476L50.941 46.2671L51.1926 46.7453H48.5507L48.6765 46.2671L49.3056 45.6694Z" fill="#351806" />
                            <path d="M20.3704 41.7246L20.8736 41.9637L20.7478 42.8004L20.4962 43.5177L19.8671 43.6372L19.6155 43.3981V42.5614L20.1188 41.8441L20.3704 41.7246Z" fill="#131110" />
                            <path d="M23.5155 72.327L23.6413 72.8051L22.8865 73.6419L22.6348 74.2396L21.5026 74.8373L20.4962 74.7178L20.9994 74.2396L22.6348 73.2833L23.3897 72.6856L23.5155 72.327Z" fill="#1E120A" />
                            <path d="M62.0118 40.6487L62.3893 40.7683V46.1476L63.3957 46.028V45.3108L63.6473 45.5499L63.7731 46.2671H62.2635L62.1376 46.028L62.0118 40.6487Z" fill="#C19A6E" />
                            <path d="M30.309 32.6395H30.4348L30.5606 37.5407V42.5614H30.4348L30.309 41.1269L29.8058 41.0074H30.309V37.4211L30.0574 37.3016H30.309V32.6395Z" fill="#C19A6E" />
                            <path d="M61.7603 92.4098L62.2635 92.5293L62.1377 93.127L61.7603 93.7247L61.257 93.8443L60.7538 93.7247H60.3764L60.5022 93.0075L61.0054 92.6489H61.7603V92.4098Z" fill="#261D16" />
                            <path d="M77.3601 70.2948H77.6117L77.3601 70.8925L76.102 72.327L75.8504 72.8052L75.473 72.2074L75.7246 71.3707L75.9762 71.1316L76.2279 70.6534L76.3537 71.012H76.7311V70.773L77.2343 70.6534L77.3601 70.2948Z" fill="#1C110A" />
                            <path d="M42.3863 44.7131H42.6379L42.8895 45.789L43.2669 46.1476V46.5062L42.6379 46.3867L41.8831 46.2671L41.6315 45.1913L42.3863 44.7131Z" fill="#1D120A" />
                            <path d="M57.9861 44.9522L58.4893 45.0717L58.8668 45.5499L59.1184 46.028L59.7474 46.1476V46.3867H59.37V46.6257H58.1119L57.6087 46.3867L57.9861 46.2671H58.3635L58.4893 45.9085L58.1119 45.789L57.8603 45.4303L57.9861 44.9522Z" fill="#351705" />
                            <path d="M34.3348 78.5431H34.5864V82.0098H34.3348L34.2089 81.7707L33.9573 78.9017L34.3348 78.5431Z" fill="#351705" />
                            <path d="M48.0475 81.5316L48.6765 81.6512L48.8023 81.7707V82.3684H46.9152L46.6636 82.2489L46.9152 81.7707L48.0475 81.5316Z" fill="#C39D72" />
                            <path d="M53.9603 78.4236H55.7216L55.8474 78.5431V79.1408L55.3442 79.2603L54.7152 79.1408L53.8345 79.2603V78.5431L53.9603 78.4236Z" fill="#361B0B" />
                            <path d="M59.7474 52.3637H59.8732L59.999 54.7545L61.1312 54.5154L61.3828 54.0373L61.5086 54.635L61.7602 54.8741L61.0054 55.1131H59.2441V54.0373L59.6216 54.3959L59.7474 52.3637Z" fill="#3A1B08" />
                            <path d="M45.154 52.9614L45.6572 53.0809L46.5378 53.4396L46.412 54.0373L45.783 54.2763L45.5314 54.874L44.7766 54.7545V54.5154L45.5314 54.3959L45.6572 53.6786L44.7766 53.32L45.154 52.9614Z" fill="#1A110A" />
                            <path d="M37.3541 80.4557L37.7315 80.5753V81.7707L37.2283 82.1293H36.9767L36.5992 81.6512L36.725 81.0535L37.3541 80.4557Z" fill="#361706" />
                            <path d="M43.0153 44.1154H43.1411L43.5185 45.5499L43.7701 46.0281V46.3867L43.1411 46.1476L42.6379 45.5499V44.7131L42.3863 44.5936L43.0153 44.1154Z" fill="#C19A6E" />
                            <path d="M48.5507 54.1568L49.0539 54.3959L49.1797 54.635L48.8023 54.874L49.9346 54.9936V55.1131H45.9088V54.9936L47.6701 54.874L46.2862 54.7545V54.635H48.5507V54.1568Z" fill="#3B1C08" />
                            <path d="M79.4988 42.2028L79.8762 42.3223L80.1279 42.92V43.7568H79.373L78.9956 43.0395L79.1214 42.5614H79.4988V42.2028Z" fill="#121110" />
                            <path d="M69.1828 37.3016H69.4344V41.0073L69.686 41.1269L69.3086 41.2464L69.1828 43.1591H69.0569V38.1384L69.1828 37.3016Z" fill="#C19A6E" />
                            <path d="M57.4829 52.4832L57.7345 52.9614L57.9861 52.7223V54.9936H57.2313L57.3571 54.5154L57.4829 52.4832Z" fill="#19100A" />
                            <path d="M65.5344 42.8004H65.786L65.5344 43.2786L64.528 43.8763H64.2764L64.1506 44.8326L63.899 45.1913H63.6474L63.3958 44.8326L63.5216 44.2349L64.6538 43.3981L65.5344 42.8004Z" fill="#29180D" />
                            <path d="M36.5993 47.1039L36.8509 47.343L36.3476 47.9407L35.3412 48.4189L34.3348 48.2993L33.8315 47.8212H35.5928L36.4735 47.343L36.5993 47.1039Z" fill="#27160B" />
                            <path d="M49.9346 38.8556L50.5636 39.2142L51.1926 40.1706V40.8878L50.8152 40.7683L50.312 40.051L49.8088 39.2142L49.9346 38.8556Z" fill="#1D130C" />
                            <path d="M43.3927 61.0901L43.6443 61.3292V62.2856L44.0217 62.166L44.2733 62.4051H43.5185L43.3927 62.2856V61.0901ZM42.3863 61.8074H42.7637L42.8895 62.166L43.3927 62.4051L42.7637 63.0028H42.3863L42.1346 62.5246L42.3863 61.8074Z" fill="#7C5A3B" />
                            <path d="M43.2669 91.9316L44.0217 92.0512L44.6508 91.9316L45.154 92.1707L44.3992 92.7684L44.0217 93.127L43.6443 92.7684V92.5293H43.3927L43.2669 91.9316Z" fill="#432713" />
                            <path d="M63.0183 27.7383L63.1441 27.9774L62.1377 30.3682H61.7603L61.6345 29.7705L62.8925 27.8579L63.0183 27.7383Z" fill="#381907" />
                            <path d="M38.9895 41.1269H39.1153V46.1476L40.4992 46.0281L40.3734 46.2671L38.8637 46.5062L38.9895 41.1269Z" fill="#C19A6E" />
                            <path d="M43.896 61.2097L44.9024 61.4488L44.6508 62.0465L44.0218 62.2856H43.6443V61.3293L43.896 61.2097Z" fill="#CAAA83" />
                            <path d="M41.0024 54.7545H41.7572L41.883 54.8741L44.1475 54.9936V55.1131H38.8637V54.9936L41.0024 54.7545Z" fill="#3A1C08" />
                            <path d="M19.1123 11.6004H19.3639V11.959H19.6155V12.1981H19.8671V12.7958L18.7349 12.5567V12.3176L18.3575 12.1981L18.6091 11.7199L19.1123 11.6004Z" fill="#FBBA3B" />
                            <path d="M52.9539 39.812L53.0797 40.1706L52.8281 41.2464L52.4507 41.6051L52.0732 40.5292L52.7023 39.9315L52.9539 39.812Z" fill="#1B110A" />
                            <path d="M59.1184 54.3959H59.2442V55.1131L61.0054 54.9936L61.8861 54.874L63.0183 55.3522L62.5151 55.4717L61.8861 55.2327L60.628 55.3522H59.4958L58.9926 55.2327L59.1184 54.3959Z" fill="#C19A6E" />
                            <path d="M61.5087 43.0396H61.6345L61.7603 44.474H62.0119L62.1377 45.1913L62.0119 46.0281L61.5087 45.9085V43.0396Z" fill="#3E1F0A" />
                            <path d="M66.6667 26.782V27.1406L66.5409 27.2602L63.5215 27.3797L63.2699 27.9774L63.0183 27.6188L63.5215 27.0211H66.2892L66.6667 26.782Z" fill="#C19A6E" />
                            <path d="M36.2218 85.7155H36.9766L37.2283 85.9546L37.1024 86.5523L36.4734 86.6718L36.096 86.3132L36.2218 85.7155Z" fill="#23150B" />
                            <path d="M44.7766 61.5683L45.0282 61.6878V62.0465L45.4056 61.9269L45.6572 62.5246L45.2798 62.6442L43.2669 62.5246L43.5185 62.2855L44.2733 62.4051V62.166L44.6508 61.9269L44.7766 61.5683Z" fill="#916E4B" />
                            <path d="M38.8637 40.7683H39.1153L38.9895 41.2464L38.8637 43.6373H38.7379V42.3223H38.4863L38.2347 41.9637L38.3605 41.366L38.8637 40.7683Z" fill="#1E120A" />
                            <path d="M40.625 26.782H41.6314L41.7572 27.1406L41.254 27.2602H39.4927V26.9016L40.625 26.782Z" fill="#2A160A" />
                            <path d="M58.8667 61.3293L59.37 61.5683L59.7474 62.0465L59.6216 62.4051L58.3635 62.6442L57.9861 62.2856L57.8603 61.8074L58.2377 61.927V62.166L59.37 62.2856L59.2441 61.8074L58.8667 61.5683V61.3293Z" fill="#64482F" />
                            <path d="M77.4859 58.9384L77.9891 59.058L78.1149 59.4166L78.4924 59.5361L78.744 60.1338L77.9891 59.8947L76.7311 59.297V59.1775L77.4859 58.9384Z" fill="#20130A" />
                            <path d="M69.0569 58.3407L69.5602 58.5798H69.3086V64.5568H69.1828L69.0569 58.3407Z" fill="#C19A6E" />
                            <path d="M53.2055 46.9844L54.0861 47.1039L54.9668 47.343H55.9732L56.728 47.1039L56.2248 47.7016H55.0926L53.3313 47.2235L53.2055 46.9844Z" fill="#2E1709" />
                            <path d="M64.528 80.6948H65.0312L64.9054 81.173L64.4022 81.7707L64.2764 82.0098L63.7731 81.8902L63.8989 81.2925L64.528 80.6948Z" fill="#361706" />
                            <path d="M62.1377 53.32L62.8925 53.9177L63.0183 54.7545L62.3893 54.5154L61.886 53.7982L62.1377 53.32Z" fill="#C69F6D" />
                            <path d="M57.2313 45.4304H57.9861L58.4893 45.9085L58.3635 46.3867L57.4829 46.2671L57.2313 45.789V45.4304Z" fill="#1B110A" />
                            <path d="M62.0118 40.8878H62.1377L62.0118 42.92H61.886V42.2028L61.3828 42.0832L61.257 41.4855L62.0118 40.8878Z" fill="#1E120A" />
                            <path d="M31.3154 80.8144H31.567V82.1293L30.8122 82.0098L30.6864 81.5316L31.3154 80.8144Z" fill="#371806" />
                            <path d="M54.2119 82.3684H54.4635V82.6075H54.7152L54.9668 83.9224L54.2119 83.6833L53.9603 82.727L54.2119 82.3684Z" fill="#341605" />
                            <path d="M71.4473 85.7155H72.3279L72.4537 86.1937L72.0763 86.5523L71.4473 86.4328L71.3215 85.8351L71.4473 85.7155Z" fill="#251409" />
                            <path d="M54.4636 53.32L54.841 53.4395L55.3442 54.3959L54.841 54.5154L54.212 54.0373L54.3378 53.4395L54.4636 53.32Z" fill="#C19A6E" />
                            <path d="M43.6444 60.2534L44.3992 60.3729V60.612L43.5186 60.7315L43.3927 61.8074H43.2669V60.8511L42.8895 60.7315V60.3729L43.6444 60.2534Z" fill="#B69066" />
                            <path d="M56.4764 61.6879H56.7281L56.8539 62.0465L57.2313 62.166V61.6879H57.4829L57.7345 62.0465L57.6087 62.5247L56.9797 62.6442L56.7281 62.5247V62.166H56.4764V61.6879Z" fill="#886847" />
                            <path d="M57.9861 44.9522L58.4893 45.0717L58.8667 45.5499V46.028L58.2377 45.9085L57.8603 45.4303L57.9861 44.9522Z" fill="#C19A6E" />
                            <path d="M69.1828 43.2786H69.8118L69.4344 43.5177L69.3086 45.0717H70.315V45.1913L69.0569 45.3108V43.3982L69.1828 43.2786Z" fill="#C19A6E" />
                            <path d="M64.528 82.0098L65.157 82.1293L65.4086 82.3684V82.9661L64.7796 82.8465L64.4022 82.3684L64.528 82.0098Z" fill="#C19A6E" />
                            <path d="M47.9217 59.7752L48.1733 60.0143V62.5246H47.9217L47.7959 62.0465V59.8947L47.9217 59.7752Z" fill="#331A09" />
                            <path d="M38.3605 53.4396L38.8637 53.5591L39.2411 53.9177V54.5154L38.7379 54.3959L38.2347 53.9177L38.3605 53.4396Z" fill="#C59F6F" />
                            <path d="M33.2025 47.2234L34.7122 47.7016H35.9702L35.5928 47.9407H33.9573H33.5799L33.2025 47.5821V47.2234Z" fill="#C19A6E" />
                            <path d="M65.6602 81.8902L66.2893 82.1293V82.727L66.1635 82.8466H65.5344L65.4086 82.1293L65.6602 81.8902Z" fill="#341605" />
                            <path d="M84.4052 67.3063L85.2858 67.4258L85.789 67.904L85.5374 68.3821V68.1431L84.9084 67.904L84.4052 67.5454V67.3063Z" fill="#F4B640" />
                            <path d="M51.9475 59.7752L52.0733 60.2534L52.1991 62.166L52.3249 62.5246L51.8217 62.4051L51.6959 60.0143L51.9475 59.7752Z" fill="#391B07" />
                            <path d="M52.9539 33.4763L53.0797 33.9545L53.2055 35.9866L52.8281 35.628L52.7023 35.1499V33.8349L52.9539 33.4763Z" fill="#3E1F0A" />
                            <path d="M52.9539 33.1177H53.2055L53.3313 33.8349L53.2055 35.628H53.0797L52.9539 33.9545V33.5958L52.8281 33.8349L52.5765 33.7154L52.9539 33.1177Z" fill="#C19A6E" />
                            <path d="M48.8023 39.2142V39.5729L48.4249 40.2901L48.1733 41.366L47.7959 41.4855L47.9217 40.5292L48.5507 39.4533L48.8023 39.2142Z" fill="#2C1609" />
                            <path d="M24.7735 35.5085L25.0252 35.628L24.2703 36.5843L23.6413 37.3016L23.0123 37.6602L23.2639 37.1821L24.5219 35.8671L24.7735 35.5085Z" fill="#201209" />
                            <path d="M41.3798 61.2097H41.5056L41.6314 62.0465L42.1346 62.5247L41.254 62.2856L40.8766 62.166L41.0024 61.5683L41.3798 61.2097Z" fill="#2F1708" />
                            <path d="M58.6151 61.2097L59.1183 61.3293H58.8667L59.37 61.8074V62.2856L58.7409 62.166L58.4893 61.927V61.6879L58.6151 61.2097Z" fill="#CAAA83" />
                            <path d="M52.9539 55.4717L53.2055 55.5913L52.199 56.3085H51.1926L50.8152 56.0694L52.4507 55.7108L52.9539 55.4717Z" fill="#24150B" />
                            <path d="M65.4086 46.2671H67.1699L66.9183 46.6257H64.9054L65.0312 46.3867L65.4086 46.2671Z" fill="#3D1E09" />
                            <path d="M60.628 80.9339L61.2571 81.173L61.3829 81.6511L60.8796 82.0098H60.628L60.7538 81.5316L60.2506 81.173L60.628 80.9339Z" fill="#361806" />
                            <path d="M54.3378 61.4488H54.5894L54.7152 62.0465L54.3378 62.8833H53.4572V62.7637L54.0862 62.6442L54.212 62.166L54.3378 61.4488Z" fill="#27180D" />
                            <path d="M53.9603 78.4236L54.4636 78.5431L54.5894 79.1408L54.4636 79.2603H53.8345V78.5431L53.9603 78.4236Z" fill="#1F130B" />
                            <path d="M53.8345 60.3729H54.2119L54.4636 61.2097L54.841 61.5683L54.7152 61.927L54.5894 61.4488H54.3378L54.2119 61.6879L53.8345 60.8511V60.3729Z" fill="#A47F58" />
                            <path d="M45.2798 53.4396L45.783 53.6787L45.5314 54.1568L45.154 54.2764L44.7766 54.0373L44.9024 53.5591L45.2798 53.4396Z" fill="#C39D72" />
                            <path d="M59.1184 45.6694H59.8732L60.1248 46.1476H60.3764V46.3867H59.7474V46.1476H58.9926L59.1184 45.6694Z" fill="#1B110A" />
                            <path d="M61.6344 53.2005L61.886 53.32L62.0118 54.0373L61.5086 54.1568L61.3828 54.635L61.257 53.6787L61.6344 53.2005Z" fill="#331605" />
                            <path d="M24.522 82.3684L24.8994 82.4879L24.6478 83.5638L24.522 83.2052H24.2703L24.1445 83.6833L24.0187 83.3247L24.3962 82.4879L24.522 82.3684Z" fill="#3E1F0A" />
                            <path d="M63.0183 27.7383L63.1441 27.9774L62.5151 29.4119L62.1377 29.1728L62.3893 28.5751L63.0183 27.7383Z" fill="#711B0E" />
                            <path d="M47.9217 41.2464L48.1733 41.366V42.8005H47.9217L47.6701 41.9637L47.9217 41.2464Z" fill="#18110C" />
                            <path d="M38.3605 34.6717L38.7379 34.7912L38.6121 35.1499V34.9108L38.2347 35.2694L38.1089 35.9866L37.3541 36.2257L37.6057 35.7476L38.3605 34.6717Z" fill="#C19A6E" />
                            <path d="M59.37 81.2925L59.999 81.4121L60.1248 81.6511L59.8732 82.0098L59.2442 81.8902L59.1183 81.5316L59.37 81.2925Z" fill="#C19A6E" />
                            <path d="M45.4056 41.7246L45.9088 41.8441V42.4418L45.4056 42.5614L45.154 42.3223L45.2798 41.8441L45.4056 41.7246Z" fill="#1F140D" />
                            <path d="M59.7474 52.3637H59.8732V54.9936H59.37L59.4958 54.3959H59.6216L59.7474 52.3637Z" fill="#351806" />
                            <path d="M62.0118 45.1913H62.1377V46.3867L61.257 46.5062L61.5086 45.9085H61.886L62.0118 45.1913Z" fill="#351705" />
                            <path d="M56.8539 26.3039L58.4894 26.6625V26.782H56.7281L56.8539 26.3039Z" fill="#361808" />
                            <path d="M49.4313 61.3293H49.683L50.0604 61.927V62.166L50.4378 62.2856H49.5572L49.3055 61.6879L49.4313 61.3293Z" fill="#341A09" />
                            <path d="M34.838 46.028L35.3412 46.1476V46.7453L34.838 46.8648L34.5864 46.2671L34.838 46.028Z" fill="#1E140D" />
                            <path d="M49.8088 45.1913L50.4378 45.789L50.6894 46.2671L50.312 46.1476L50.0604 45.9085L49.8088 46.028V45.6694H49.5572V45.3108L49.8088 45.1913Z" fill="#1C110A" />
                            <path d="M26.6606 42.8004H27.7929V43.0395H27.5413L27.2897 43.7568L27.0381 43.2786L26.9123 42.92L26.6606 42.8004Z" fill="#131110" />
                            <path d="M61.3829 29.651L61.6345 29.7705L61.7603 30.3682H62.1377L62.2635 29.7705L62.3893 30.1292L62.1377 30.8464H61.7603L61.3829 30.1292V29.651Z" fill="#C19A6E" />
                            <path d="M55.0926 82.0098L55.3442 82.2488V82.727L54.4636 82.6075L54.7152 82.1293L55.0926 82.0098Z" fill="#C49E70" />
                            <path d="M57.4829 46.2671L57.8603 46.6257L56.7281 47.2234L56.4764 46.9844L57.4829 46.2671Z" fill="#B89167" />
                            <path d="M43.1411 45.3108H43.3927L43.7702 46.028V46.3867L43.1411 46.1476L43.0153 45.9085L43.1411 45.3108Z" fill="#C19A6E" />
                            <path d="M42.7637 81.5316H43.1411V82.2489L42.6379 82.3684L42.5121 81.7707L42.7637 81.5316Z" fill="#351705" />
                            <path d="M48.425 55.9499H49.054L48.6766 56.6672L48.1733 56.5476V56.0695L48.425 55.9499Z" fill="#24150B" />
                            <path d="M59.2441 54.0373H59.3699V54.9936H59.8732L59.999 54.7545H60.3764V54.9936H61.0054V55.1131H59.2441V54.0373Z" fill="#3E1F0A" />
                            <path d="M63.7732 44.2349L64.1506 44.474L64.0248 44.9522L63.899 45.1912H63.6474L63.3958 44.5935L63.7732 44.2349Z" fill="#17100B" />
                            <path d="M51.1927 40.4096H51.3185L51.4443 41.366L51.3185 42.8004H51.1927L51.0668 41.366L50.941 40.8878H51.1927V40.4096Z" fill="#2B180C" />
                            <path d="M48.0475 17.3383L48.2991 17.4579L46.9152 18.7728L46.7894 18.5337L47.5443 17.6969L48.0475 17.3383Z" fill="#C9A880" />
                            <path d="M15.0866 77.9454L15.3382 78.0649L14.8349 78.9017L14.3317 78.6626V78.4235L15.0866 77.9454Z" fill="#271408" />
                            <path d="M50.0604 65.8718H50.312L50.5636 66.8281V67.4258L50.312 66.9477L50.1862 66.4695L50.0604 67.1867H49.9346V65.9913L50.0604 65.8718Z" fill="#C19A6E" />
                            <path d="M55.5958 61.6879H56.3507V62.166L55.8474 62.2856L55.47 62.166L55.5958 61.6879Z" fill="#DCC8AA" />
                            <path d="M82.0149 60.8511L82.1407 61.3292L82.0149 61.5683L81.2601 61.4488L80.7568 61.0902H81.8891L82.0149 60.8511Z" fill="#3D150B" />
                            <path d="M48.5507 47.9407L48.8024 48.0602V48.2993L49.3056 48.5384L49.1798 48.6579H48.4249L48.2991 48.1798L48.5507 47.9407Z" fill="#26150A" />
                            <path d="M46.7895 34.9108L47.1669 35.0303L47.2927 35.7476L47.0411 35.9866L46.7895 35.8671V35.3889L46.5378 35.2694L46.7895 34.9108Z" fill="#7F5E3E" />
                            <path d="M59.3699 80.5753L59.999 80.6948L60.2506 81.173H59.4958L59.2441 80.8143L59.3699 80.5753Z" fill="#341605" />
                            <path d="M49.9346 55.7108L50.8152 55.8304L51.57 55.9499V56.0694L50.312 56.189L49.9346 55.9499V55.7108Z" fill="#C19A6E" />
                            <path d="M62.0119 52.8419L62.5151 52.9614L62.6409 53.6786L62.1377 53.4396H61.7603L61.8861 52.9614L62.0119 52.8419Z" fill="#461D0A" />
                            <path d="M33.8315 47.8212L35.467 47.9407L34.9638 48.1798L34.3348 48.2993L33.8315 47.8212Z" fill="#381A07" />
                            <path d="M56.4764 47.1039L56.7281 47.2235L56.2248 47.7016H55.0926V47.4625L56.3506 47.2235L56.4764 47.1039Z" fill="#20160F" />
                            <path d="M48.0475 35.0303L48.5507 35.1499L48.6765 36.1062H48.2991L48.0475 35.0303Z" fill="#331B0A" />
                            <path d="M56.8539 91.573L57.7345 91.9316L58.3635 92.0512V92.1707H56.8539V91.573Z" fill="#1E150E" />
                            <path d="M55.47 61.2097L55.7216 61.3293L55.47 62.166H55.8474L55.7216 62.5247L55.2184 62.4051V61.5683L55.47 61.2097Z" fill="#95724F" />
                            <path d="M49.4313 55.8304L49.9346 55.9499L49.683 56.7867L49.3055 56.4281L49.4313 55.8304Z" fill="#22150C" />
                            <path d="M42.7637 44.8326L43.1411 44.9522L43.2669 45.6694L43.1411 45.9085L42.7637 45.789V44.8326Z" fill="#DAC29E" />
                        </g>
                        <defs>
                            <clipPath id="clip0_175_3653">
                                <rect width="100" height="100" fill="white" />
                            </clipPath>
                        </defs>
                    </svg>