    <svg width="222" height="29" viewBox="0 0 222 29" fill="none" xmlns="http://www.w3.org/2000/svg">
            <path d="M53.3366 9.94012H157.981" stroke="#C7A250" stroke-width="3" stroke-linecap="round" />
            <path fill-rule="evenodd" clip-rule="evenodd" d="M36.8875 1.67181C40.5505 7.38272 49.4551 9.52896 54.0337 10.0398C49.4309 10.5534 40.4564 13.0806 36.83 19.0138C31.186 16.4915 26.3049 13.6406 21.8074 10.1358C27.1519 6.55975 31.6571 3.99157 36.8875 1.67181Z" fill="#C7A250" fill-opacity="0.75" />
            <path d="M36.8875 1.67181L38.1501 0.861973C37.7505 0.238893 36.956 0.000511408 36.2794 0.300624L36.8875 1.67181ZM54.0337 10.0398L54.2 11.5306C54.9594 11.4458 55.5337 10.8039 55.5337 10.0398C55.5337 9.27576 54.9594 8.63379 54.2 8.54907L54.0337 10.0398ZM36.83 19.0138L36.2179 20.3833C36.9065 20.691 37.7165 20.4396 38.1098 19.7961L36.83 19.0138ZM21.8074 10.1358L20.9733 8.88913C20.5731 9.15688 20.3258 9.60044 20.3084 10.0816C20.291 10.5627 20.5056 11.023 20.8854 11.319L21.8074 10.1358ZM35.6249 2.48166C37.6977 5.71319 41.1699 7.83024 44.5558 9.19681C47.9665 10.5734 51.4758 11.2637 53.8674 11.5306L54.2 8.54907C52.013 8.30505 48.7807 7.66687 45.6787 6.41486C42.5519 5.15287 39.7404 3.34134 38.1501 0.861973L35.6249 2.48166ZM53.8674 8.54907C51.4319 8.8208 47.8882 9.61602 44.4623 11.1211C41.0569 12.6173 37.5904 14.8933 35.5501 18.2315L38.1098 19.7961C39.6959 17.201 42.5299 15.2469 45.669 13.8677C48.7878 12.4975 52.0326 11.7724 54.2 11.5306L53.8674 8.54907ZM37.442 17.6443C31.8921 15.1641 27.1182 12.3728 22.7295 8.95264L20.8854 11.319C25.4915 14.9085 30.4799 17.819 36.2179 20.3833L37.442 17.6443ZM22.6416 11.3825C27.931 7.84325 32.3604 5.32058 37.4957 3.043L36.2794 0.300624C30.9539 2.66257 26.3728 5.27624 20.9733 8.88913L22.6416 11.3825Z" fill="#C7A250" />
            <path d="M168.169 18.0826H63.524" stroke="#C7A250" stroke-width="3" stroke-linecap="round" />
            <path fill-rule="evenodd" clip-rule="evenodd" d="M184.618 9.81427C180.955 15.5252 172.05 17.6714 167.472 18.1823C172.074 18.6958 181.049 21.223 184.675 27.1562C190.319 24.634 195.2 21.7831 199.698 18.2783C194.353 14.7022 189.848 12.134 184.618 9.81427Z" fill="#C7A250" fill-opacity="0.75" />
            <path d="M184.618 9.81427L183.355 9.00443C183.755 8.38135 184.549 8.14297 185.226 8.44308L184.618 9.81427ZM167.472 18.1823L167.305 19.673C166.546 19.5883 165.972 18.9463 165.972 18.1823C165.972 17.4182 166.546 16.7763 167.305 16.6915L167.472 18.1823ZM184.675 27.1562L185.287 28.5257C184.599 28.8334 183.789 28.582 183.395 27.9385L184.675 27.1562ZM199.698 18.2783L200.532 17.0316C200.932 17.2993 201.179 17.7429 201.197 18.224C201.214 18.7052 201 19.1655 200.62 19.4614L199.698 18.2783ZM185.88 10.6241C183.808 13.8556 180.335 15.9727 176.949 17.3393C173.539 18.7158 170.029 19.4062 167.638 19.673L167.305 16.6915C169.492 16.4475 172.724 15.8093 175.827 14.5573C178.953 13.2953 181.765 11.4838 183.355 9.00443L185.88 10.6241ZM167.638 16.6915C170.073 16.9633 173.617 17.7585 177.043 19.2636C180.448 20.7597 183.915 23.0358 185.955 26.374L183.395 27.9385C181.809 25.3435 178.975 23.3893 175.836 22.0102C172.717 20.64 169.473 19.9149 167.305 19.673L167.638 16.6915ZM184.063 25.7868C189.613 23.3065 194.387 20.5152 198.776 17.0951L200.62 19.4614C196.014 23.0509 191.025 25.9614 185.287 28.5257L184.063 25.7868ZM198.864 19.5249C193.574 15.9857 189.145 13.463 184.01 11.1855L185.226 8.44308C190.551 10.805 195.132 13.4187 200.532 17.0316L198.864 19.5249Z" fill="#C7A250" />
        </svg>